<?xml version="1.0" encoding="utf-8"?>
<svg version="1.1" baseProfile="full" width="800" height="600" xmlns="http://www.w3.org/2000/svg">
<clipPath>
<rect x="0" y="0" width="800" height="600" fill="rgb(0,0,0)" />
</clipPath>
<text x="274" y="34" fill="rgb(0,0,0)">
bst.contains() Versus std::find() on array</text>
<line x1="158.858" y1="50" x2="158.858" y2="550" stroke="rgb(200,200,200)" />
<line x1="222.835" y1="50" x2="222.835" y2="550" stroke="rgb(200,200,200)" />
<line x1="286.811" y1="50" x2="286.811" y2="550" stroke="rgb(200,200,200)" />
<line x1="350.787" y1="50" x2="350.787" y2="550" stroke="rgb(200,200,200)" />
<line x1="414.764" y1="50" x2="414.764" y2="550" stroke="rgb(200,200,200)" />
<line x1="478.74" y1="50" x2="478.74" y2="550" stroke="rgb(200,200,200)" />
<line x1="542.717" y1="50" x2="542.717" y2="550" stroke="rgb(200,200,200)" />
<line x1="606.693" y1="50" x2="606.693" y2="550" stroke="rgb(200,200,200)" />
<line x1="670.669" y1="50" x2="670.669" y2="550" stroke="rgb(200,200,200)" />
<line x1="734.646" y1="50" x2="734.646" y2="550" stroke="rgb(200,200,200)" />
<line x1="100" y1="550" x2="750" y2="550" stroke="rgb(200,200,200)" />
<line x1="100" y1="519.88" x2="750" y2="519.88" stroke="rgb(200,200,200)" />
<line x1="100" y1="489.759" x2="750" y2="489.759" stroke="rgb(200,200,200)" />
<line x1="100" y1="459.639" x2="750" y2="459.639" stroke="rgb(200,200,200)" />
<line x1="100" y1="429.518" x2="750" y2="429.518" stroke="rgb(200,200,200)" />
<line x1="100" y1="399.398" x2="750" y2="399.398" stroke="rgb(200,200,200)" />
<line x1="100" y1="369.277" x2="750" y2="369.277" stroke="rgb(200,200,200)" />
<line x1="100" y1="339.157" x2="750" y2="339.157" stroke="rgb(200,200,200)" />
<line x1="100" y1="309.036" x2="750" y2="309.036" stroke="rgb(200,200,200)" />
<line x1="100" y1="278.916" x2="750" y2="278.916" stroke="rgb(200,200,200)" />
<line x1="100" y1="248.795" x2="750" y2="248.795" stroke="rgb(200,200,200)" />
<line x1="100" y1="218.675" x2="750" y2="218.675" stroke="rgb(200,200,200)" />
<line x1="100" y1="188.554" x2="750" y2="188.554" stroke="rgb(200,200,200)" />
<line x1="100" y1="158.434" x2="750" y2="158.434" stroke="rgb(200,200,200)" />
<line x1="100" y1="128.313" x2="750" y2="128.313" stroke="rgb(200,200,200)" />
<line x1="100" y1="98.1927" x2="750" y2="98.1927" stroke="rgb(200,200,200)" />
<line x1="100" y1="68.0723" x2="750" y2="68.0723" stroke="rgb(200,200,200)" />
<line x1="100" y1="550" x2="750" y2="550" stroke="rgb(0,0,0)" />
<line x1="107.677" y1="550" x2="107.677" y2="554" stroke="rgb(0,0,0)" />
<line x1="120.472" y1="550" x2="120.472" y2="554" stroke="rgb(0,0,0)" />
<line x1="133.268" y1="550" x2="133.268" y2="554" stroke="rgb(0,0,0)" />
<line x1="146.063" y1="550" x2="146.063" y2="554" stroke="rgb(0,0,0)" />
<text x="158" y="578" fill="rgb(0,0,0)">
200</text>
<line x1="158.858" y1="550" x2="158.858" y2="558" stroke="rgb(0,0,0)" />
<line x1="171.654" y1="550" x2="171.654" y2="554" stroke="rgb(0,0,0)" />
<line x1="184.449" y1="550" x2="184.449" y2="554" stroke="rgb(0,0,0)" />
<line x1="197.244" y1="550" x2="197.244" y2="554" stroke="rgb(0,0,0)" />
<line x1="210.039" y1="550" x2="210.039" y2="554" stroke="rgb(0,0,0)" />
<text x="222" y="578" fill="rgb(0,0,0)">
400</text>
<line x1="222.835" y1="550" x2="222.835" y2="558" stroke="rgb(0,0,0)" />
<line x1="235.63" y1="550" x2="235.63" y2="554" stroke="rgb(0,0,0)" />
<line x1="248.425" y1="550" x2="248.425" y2="554" stroke="rgb(0,0,0)" />
<line x1="261.22" y1="550" x2="261.22" y2="554" stroke="rgb(0,0,0)" />
<line x1="274.016" y1="550" x2="274.016" y2="554" stroke="rgb(0,0,0)" />
<text x="286" y="578" fill="rgb(0,0,0)">
600</text>
<line x1="286.811" y1="550" x2="286.811" y2="558" stroke="rgb(0,0,0)" />
<line x1="299.606" y1="550" x2="299.606" y2="554" stroke="rgb(0,0,0)" />
<line x1="312.402" y1="550" x2="312.402" y2="554" stroke="rgb(0,0,0)" />
<line x1="325.197" y1="550" x2="325.197" y2="554" stroke="rgb(0,0,0)" />
<line x1="337.992" y1="550" x2="337.992" y2="554" stroke="rgb(0,0,0)" />
<text x="350" y="578" fill="rgb(0,0,0)">
800</text>
<line x1="350.787" y1="550" x2="350.787" y2="558" stroke="rgb(0,0,0)" />
<line x1="363.583" y1="550" x2="363.583" y2="554" stroke="rgb(0,0,0)" />
<line x1="376.378" y1="550" x2="376.378" y2="554" stroke="rgb(0,0,0)" />
<line x1="389.173" y1="550" x2="389.173" y2="554" stroke="rgb(0,0,0)" />
<line x1="401.969" y1="550" x2="401.969" y2="554" stroke="rgb(0,0,0)" />
<text x="414" y="578" fill="rgb(0,0,0)">
1000</text>
<line x1="414.764" y1="550" x2="414.764" y2="558" stroke="rgb(0,0,0)" />
<line x1="427.559" y1="550" x2="427.559" y2="554" stroke="rgb(0,0,0)" />
<line x1="440.354" y1="550" x2="440.354" y2="554" stroke="rgb(0,0,0)" />
<line x1="453.15" y1="550" x2="453.15" y2="554" stroke="rgb(0,0,0)" />
<line x1="465.945" y1="550" x2="465.945" y2="554" stroke="rgb(0,0,0)" />
<text x="478" y="578" fill="rgb(0,0,0)">
1200</text>
<line x1="478.74" y1="550" x2="478.74" y2="558" stroke="rgb(0,0,0)" />
<line x1="491.535" y1="550" x2="491.535" y2="554" stroke="rgb(0,0,0)" />
<line x1="504.331" y1="550" x2="504.331" y2="554" stroke="rgb(0,0,0)" />
<line x1="517.126" y1="550" x2="517.126" y2="554" stroke="rgb(0,0,0)" />
<line x1="529.921" y1="550" x2="529.921" y2="554" stroke="rgb(0,0,0)" />
<text x="542" y="578" fill="rgb(0,0,0)">
1400</text>
<line x1="542.717" y1="550" x2="542.717" y2="558" stroke="rgb(0,0,0)" />
<line x1="555.512" y1="550" x2="555.512" y2="554" stroke="rgb(0,0,0)" />
<line x1="568.307" y1="550" x2="568.307" y2="554" stroke="rgb(0,0,0)" />
<line x1="581.102" y1="550" x2="581.102" y2="554" stroke="rgb(0,0,0)" />
<line x1="593.898" y1="550" x2="593.898" y2="554" stroke="rgb(0,0,0)" />
<text x="606" y="578" fill="rgb(0,0,0)">
1600</text>
<line x1="606.693" y1="550" x2="606.693" y2="558" stroke="rgb(0,0,0)" />
<line x1="619.488" y1="550" x2="619.488" y2="554" stroke="rgb(0,0,0)" />
<line x1="632.283" y1="550" x2="632.283" y2="554" stroke="rgb(0,0,0)" />
<line x1="645.079" y1="550" x2="645.079" y2="554" stroke="rgb(0,0,0)" />
<line x1="657.874" y1="550" x2="657.874" y2="554" stroke="rgb(0,0,0)" />
<text x="670" y="578" fill="rgb(0,0,0)">
1800</text>
<line x1="670.669" y1="550" x2="670.669" y2="558" stroke="rgb(0,0,0)" />
<line x1="683.465" y1="550" x2="683.465" y2="554" stroke="rgb(0,0,0)" />
<line x1="696.26" y1="550" x2="696.26" y2="554" stroke="rgb(0,0,0)" />
<line x1="709.055" y1="550" x2="709.055" y2="554" stroke="rgb(0,0,0)" />
<line x1="721.85" y1="550" x2="721.85" y2="554" stroke="rgb(0,0,0)" />
<text x="734" y="578" fill="rgb(0,0,0)">
2000</text>
<line x1="734.646" y1="550" x2="734.646" y2="558" stroke="rgb(0,0,0)" />
<line x1="747.441" y1="550" x2="747.441" y2="554" stroke="rgb(0,0,0)" />
<text x="409" y="594" fill="rgb(0,0,0)">
N</text>
<line x1="100" y1="50" x2="100" y2="550" stroke="rgb(0,0,0)" />
<text x="58" y="558" fill="rgb(0,0,0)">
0</text>
<line x1="100" y1="550" x2="92" y2="550" stroke="rgb(0,0,0)" />
<line x1="100" y1="543.976" x2="96" y2="543.976" stroke="rgb(0,0,0)" />
<line x1="100" y1="537.952" x2="96" y2="537.952" stroke="rgb(0,0,0)" />
<line x1="100" y1="531.928" x2="96" y2="531.928" stroke="rgb(0,0,0)" />
<line x1="100" y1="525.904" x2="96" y2="525.904" stroke="rgb(0,0,0)" />
<text x="52" y="527" fill="rgb(0,0,0)">
50</text>
<line x1="100" y1="519.88" x2="92" y2="519.88" stroke="rgb(0,0,0)" />
<line x1="100" y1="513.855" x2="96" y2="513.855" stroke="rgb(0,0,0)" />
<line x1="100" y1="507.831" x2="96" y2="507.831" stroke="rgb(0,0,0)" />
<line x1="100" y1="501.807" x2="96" y2="501.807" stroke="rgb(0,0,0)" />
<line x1="100" y1="495.783" x2="96" y2="495.783" stroke="rgb(0,0,0)" />
<text x="47" y="497" fill="rgb(0,0,0)">
100</text>
<line x1="100" y1="489.759" x2="92" y2="489.759" stroke="rgb(0,0,0)" />
<line x1="100" y1="483.735" x2="96" y2="483.735" stroke="rgb(0,0,0)" />
<line x1="100" y1="477.711" x2="96" y2="477.711" stroke="rgb(0,0,0)" />
<line x1="100" y1="471.687" x2="96" y2="471.687" stroke="rgb(0,0,0)" />
<line x1="100" y1="465.663" x2="96" y2="465.663" stroke="rgb(0,0,0)" />
<text x="47" y="467" fill="rgb(0,0,0)">
150</text>
<line x1="100" y1="459.639" x2="92" y2="459.639" stroke="rgb(0,0,0)" />
<line x1="100" y1="453.614" x2="96" y2="453.614" stroke="rgb(0,0,0)" />
<line x1="100" y1="447.59" x2="96" y2="447.59" stroke="rgb(0,0,0)" />
<line x1="100" y1="441.566" x2="96" y2="441.566" stroke="rgb(0,0,0)" />
<line x1="100" y1="435.542" x2="96" y2="435.542" stroke="rgb(0,0,0)" />
<text x="46" y="437" fill="rgb(0,0,0)">
200</text>
<line x1="100" y1="429.518" x2="92" y2="429.518" stroke="rgb(0,0,0)" />
<line x1="100" y1="423.494" x2="96" y2="423.494" stroke="rgb(0,0,0)" />
<line x1="100" y1="417.47" x2="96" y2="417.47" stroke="rgb(0,0,0)" />
<line x1="100" y1="411.446" x2="96" y2="411.446" stroke="rgb(0,0,0)" />
<line x1="100" y1="405.422" x2="96" y2="405.422" stroke="rgb(0,0,0)" />
<text x="46" y="407" fill="rgb(0,0,0)">
250</text>
<line x1="100" y1="399.398" x2="92" y2="399.398" stroke="rgb(0,0,0)" />
<line x1="100" y1="393.373" x2="96" y2="393.373" stroke="rgb(0,0,0)" />
<line x1="100" y1="387.349" x2="96" y2="387.349" stroke="rgb(0,0,0)" />
<line x1="100" y1="381.325" x2="96" y2="381.325" stroke="rgb(0,0,0)" />
<line x1="100" y1="375.301" x2="96" y2="375.301" stroke="rgb(0,0,0)" />
<text x="46" y="377" fill="rgb(0,0,0)">
300</text>
<line x1="100" y1="369.277" x2="92" y2="369.277" stroke="rgb(0,0,0)" />
<line x1="100" y1="363.253" x2="96" y2="363.253" stroke="rgb(0,0,0)" />
<line x1="100" y1="357.229" x2="96" y2="357.229" stroke="rgb(0,0,0)" />
<line x1="100" y1="351.205" x2="96" y2="351.205" stroke="rgb(0,0,0)" />
<line x1="100" y1="345.181" x2="96" y2="345.181" stroke="rgb(0,0,0)" />
<text x="46" y="347" fill="rgb(0,0,0)">
350</text>
<line x1="100" y1="339.157" x2="92" y2="339.157" stroke="rgb(0,0,0)" />
<line x1="100" y1="333.133" x2="96" y2="333.133" stroke="rgb(0,0,0)" />
<line x1="100" y1="327.108" x2="96" y2="327.108" stroke="rgb(0,0,0)" />
<line x1="100" y1="321.084" x2="96" y2="321.084" stroke="rgb(0,0,0)" />
<line x1="100" y1="315.06" x2="96" y2="315.06" stroke="rgb(0,0,0)" />
<text x="46" y="317" fill="rgb(0,0,0)">
400</text>
<line x1="100" y1="309.036" x2="92" y2="309.036" stroke="rgb(0,0,0)" />
<line x1="100" y1="303.012" x2="96" y2="303.012" stroke="rgb(0,0,0)" />
<line x1="100" y1="296.988" x2="96" y2="296.988" stroke="rgb(0,0,0)" />
<line x1="100" y1="290.964" x2="96" y2="290.964" stroke="rgb(0,0,0)" />
<line x1="100" y1="284.94" x2="96" y2="284.94" stroke="rgb(0,0,0)" />
<text x="46" y="286" fill="rgb(0,0,0)">
450</text>
<line x1="100" y1="278.916" x2="92" y2="278.916" stroke="rgb(0,0,0)" />
<line x1="100" y1="272.892" x2="96" y2="272.892" stroke="rgb(0,0,0)" />
<line x1="100" y1="266.867" x2="96" y2="266.867" stroke="rgb(0,0,0)" />
<line x1="100" y1="260.843" x2="96" y2="260.843" stroke="rgb(0,0,0)" />
<line x1="100" y1="254.819" x2="96" y2="254.819" stroke="rgb(0,0,0)" />
<text x="46" y="256" fill="rgb(0,0,0)">
500</text>
<line x1="100" y1="248.795" x2="92" y2="248.795" stroke="rgb(0,0,0)" />
<line x1="100" y1="242.771" x2="96" y2="242.771" stroke="rgb(0,0,0)" />
<line x1="100" y1="236.747" x2="96" y2="236.747" stroke="rgb(0,0,0)" />
<line x1="100" y1="230.723" x2="96" y2="230.723" stroke="rgb(0,0,0)" />
<line x1="100" y1="224.699" x2="96" y2="224.699" stroke="rgb(0,0,0)" />
<text x="46" y="226" fill="rgb(0,0,0)">
550</text>
<line x1="100" y1="218.675" x2="92" y2="218.675" stroke="rgb(0,0,0)" />
<line x1="100" y1="212.651" x2="96" y2="212.651" stroke="rgb(0,0,0)" />
<line x1="100" y1="206.626" x2="96" y2="206.626" stroke="rgb(0,0,0)" />
<line x1="100" y1="200.602" x2="96" y2="200.602" stroke="rgb(0,0,0)" />
<line x1="100" y1="194.578" x2="96" y2="194.578" stroke="rgb(0,0,0)" />
<text x="46" y="196" fill="rgb(0,0,0)">
600</text>
<line x1="100" y1="188.554" x2="92" y2="188.554" stroke="rgb(0,0,0)" />
<line x1="100" y1="182.53" x2="96" y2="182.53" stroke="rgb(0,0,0)" />
<line x1="100" y1="176.506" x2="96" y2="176.506" stroke="rgb(0,0,0)" />
<line x1="100" y1="170.482" x2="96" y2="170.482" stroke="rgb(0,0,0)" />
<line x1="100" y1="164.458" x2="96" y2="164.458" stroke="rgb(0,0,0)" />
<text x="46" y="166" fill="rgb(0,0,0)">
650</text>
<line x1="100" y1="158.434" x2="92" y2="158.434" stroke="rgb(0,0,0)" />
<line x1="100" y1="152.41" x2="96" y2="152.41" stroke="rgb(0,0,0)" />
<line x1="100" y1="146.386" x2="96" y2="146.386" stroke="rgb(0,0,0)" />
<line x1="100" y1="140.361" x2="96" y2="140.361" stroke="rgb(0,0,0)" />
<line x1="100" y1="134.337" x2="96" y2="134.337" stroke="rgb(0,0,0)" />
<text x="46" y="136" fill="rgb(0,0,0)">
700</text>
<line x1="100" y1="128.313" x2="92" y2="128.313" stroke="rgb(0,0,0)" />
<line x1="100" y1="122.289" x2="96" y2="122.289" stroke="rgb(0,0,0)" />
<line x1="100" y1="116.265" x2="96" y2="116.265" stroke="rgb(0,0,0)" />
<line x1="100" y1="110.241" x2="96" y2="110.241" stroke="rgb(0,0,0)" />
<line x1="100" y1="104.217" x2="96" y2="104.217" stroke="rgb(0,0,0)" />
<text x="46" y="106" fill="rgb(0,0,0)">
750</text>
<line x1="100" y1="98.1927" x2="92" y2="98.1927" stroke="rgb(0,0,0)" />
<line x1="100" y1="92.1687" x2="96" y2="92.1687" stroke="rgb(0,0,0)" />
<line x1="100" y1="86.1446" x2="96" y2="86.1446" stroke="rgb(0,0,0)" />
<line x1="100" y1="80.1205" x2="96" y2="80.1205" stroke="rgb(0,0,0)" />
<line x1="100" y1="74.0964" x2="96" y2="74.0964" stroke="rgb(0,0,0)" />
<text x="46" y="76" fill="rgb(0,0,0)">
800</text>
<line x1="100" y1="68.0723" x2="92" y2="68.0723" stroke="rgb(0,0,0)" />
<line x1="100" y1="62.0482" x2="96" y2="62.0482" stroke="rgb(0,0,0)" />
<line x1="100" y1="56.0241" x2="96" y2="56.0241" stroke="rgb(0,0,0)" />
<line x1="100" y1="50" x2="96" y2="50" stroke="rgb(0,0,0)" />
<text x="46" y="370" transform="rotate(-90,46,370)">Time (microseconds)</text>
<text x="120" y="66" fill="rgb(200,0,100)">
bst.contains()</text>
<text x="120" y="98" fill="rgb(100,20,220)">
std::find()</text>
<clipPath>
<rect x="100" y="50" width="650" height="500" fill="rgb(0,0,0)" />
</clipPath>
<line x1="100" y1="549.398" x2="105.118" y2="549.398" stroke="rgb(200,0,100)" />
<line x1="105.118" y1="549.398" x2="115.354" y2="548.193" stroke="rgb(200,0,100)" />
<line x1="115.354" y1="548.193" x2="135.827" y2="546.386" stroke="rgb(200,0,100)" />
<line x1="135.827" y1="546.386" x2="176.772" y2="543.373" stroke="rgb(200,0,100)" />
<line x1="176.772" y1="543.373" x2="258.661" y2="531.928" stroke="rgb(200,0,100)" />
<line x1="258.661" y1="531.928" x2="422.441" y2="509.036" stroke="rgb(200,0,100)" />
<line x1="422.441" y1="509.036" x2="750" y2="458.434" stroke="rgb(200,0,100)" />
<line x1="100" y1="548.193" x2="105.118" y2="548.795" stroke="rgb(100,20,220)" />
<line x1="105.118" y1="548.795" x2="115.354" y2="547.59" stroke="rgb(100,20,220)" />
<line x1="115.354" y1="547.59" x2="135.827" y2="542.771" stroke="rgb(100,20,220)" />
<line x1="135.827" y1="542.771" x2="176.772" y2="531.928" stroke="rgb(100,20,220)" />
<line x1="176.772" y1="531.928" x2="258.661" y2="501.205" stroke="rgb(100,20,220)" />
<line x1="258.661" y1="501.205" x2="422.441" y2="403.012" stroke="rgb(100,20,220)" />
<line x1="422.441" y1="403.012" x2="750" y2="50" stroke="rgb(100,20,220)" />
</svg>

