<?xml version="1.0" encoding="utf-8"?>
<svg version="1.1" baseProfile="full" width="800" height="600" xmlns="http://www.w3.org/2000/svg">
<clipPath>
<rect x="0" y="0" width="800" height="600" fill="rgb(0,0,0)" />
</clipPath>
<text x="230" y="34" fill="rgb(0,0,0)">
Number of Elements Versus Time (1000 samples at each N)</text>
<line x1="192.857" y1="50" x2="192.857" y2="550" stroke="rgb(200,200,200)" />
<line x1="296.032" y1="50" x2="296.032" y2="550" stroke="rgb(200,200,200)" />
<line x1="399.206" y1="50" x2="399.206" y2="550" stroke="rgb(200,200,200)" />
<line x1="502.381" y1="50" x2="502.381" y2="550" stroke="rgb(200,200,200)" />
<line x1="605.556" y1="50" x2="605.556" y2="550" stroke="rgb(200,200,200)" />
<line x1="708.73" y1="50" x2="708.73" y2="550" stroke="rgb(200,200,200)" />
<line x1="100" y1="550" x2="750" y2="550" stroke="rgb(200,200,200)" />
<line x1="100" y1="514.912" x2="750" y2="514.912" stroke="rgb(200,200,200)" />
<line x1="100" y1="479.825" x2="750" y2="479.825" stroke="rgb(200,200,200)" />
<line x1="100" y1="444.737" x2="750" y2="444.737" stroke="rgb(200,200,200)" />
<line x1="100" y1="409.649" x2="750" y2="409.649" stroke="rgb(200,200,200)" />
<line x1="100" y1="374.561" x2="750" y2="374.561" stroke="rgb(200,200,200)" />
<line x1="100" y1="339.474" x2="750" y2="339.474" stroke="rgb(200,200,200)" />
<line x1="100" y1="304.386" x2="750" y2="304.386" stroke="rgb(200,200,200)" />
<line x1="100" y1="269.298" x2="750" y2="269.298" stroke="rgb(200,200,200)" />
<line x1="100" y1="234.211" x2="750" y2="234.211" stroke="rgb(200,200,200)" />
<line x1="100" y1="199.123" x2="750" y2="199.123" stroke="rgb(200,200,200)" />
<line x1="100" y1="164.035" x2="750" y2="164.035" stroke="rgb(200,200,200)" />
<line x1="100" y1="128.947" x2="750" y2="128.947" stroke="rgb(200,200,200)" />
<line x1="100" y1="93.8596" x2="750" y2="93.8596" stroke="rgb(200,200,200)" />
<line x1="100" y1="58.7719" x2="750" y2="58.7719" stroke="rgb(200,200,200)" />
<line x1="100" y1="550" x2="750" y2="550" stroke="rgb(0,0,0)" />
<line x1="110.317" y1="550" x2="110.317" y2="554" stroke="rgb(0,0,0)" />
<line x1="130.952" y1="550" x2="130.952" y2="554" stroke="rgb(0,0,0)" />
<line x1="151.587" y1="550" x2="151.587" y2="554" stroke="rgb(0,0,0)" />
<line x1="172.222" y1="550" x2="172.222" y2="554" stroke="rgb(0,0,0)" />
<text x="192" y="578" fill="rgb(0,0,0)">
1000</text>
<line x1="192.857" y1="550" x2="192.857" y2="558" stroke="rgb(0,0,0)" />
<line x1="213.492" y1="550" x2="213.492" y2="554" stroke="rgb(0,0,0)" />
<line x1="234.127" y1="550" x2="234.127" y2="554" stroke="rgb(0,0,0)" />
<line x1="254.762" y1="550" x2="254.762" y2="554" stroke="rgb(0,0,0)" />
<line x1="275.397" y1="550" x2="275.397" y2="554" stroke="rgb(0,0,0)" />
<text x="296" y="578" fill="rgb(0,0,0)">
2000</text>
<line x1="296.032" y1="550" x2="296.032" y2="558" stroke="rgb(0,0,0)" />
<line x1="316.667" y1="550" x2="316.667" y2="554" stroke="rgb(0,0,0)" />
<line x1="337.302" y1="550" x2="337.302" y2="554" stroke="rgb(0,0,0)" />
<line x1="357.937" y1="550" x2="357.937" y2="554" stroke="rgb(0,0,0)" />
<line x1="378.571" y1="550" x2="378.571" y2="554" stroke="rgb(0,0,0)" />
<text x="399" y="578" fill="rgb(0,0,0)">
3000</text>
<line x1="399.206" y1="550" x2="399.206" y2="558" stroke="rgb(0,0,0)" />
<line x1="419.841" y1="550" x2="419.841" y2="554" stroke="rgb(0,0,0)" />
<line x1="440.476" y1="550" x2="440.476" y2="554" stroke="rgb(0,0,0)" />
<line x1="461.111" y1="550" x2="461.111" y2="554" stroke="rgb(0,0,0)" />
<line x1="481.746" y1="550" x2="481.746" y2="554" stroke="rgb(0,0,0)" />
<text x="502" y="578" fill="rgb(0,0,0)">
4000</text>
<line x1="502.381" y1="550" x2="502.381" y2="558" stroke="rgb(0,0,0)" />
<line x1="523.016" y1="550" x2="523.016" y2="554" stroke="rgb(0,0,0)" />
<line x1="543.651" y1="550" x2="543.651" y2="554" stroke="rgb(0,0,0)" />
<line x1="564.286" y1="550" x2="564.286" y2="554" stroke="rgb(0,0,0)" />
<line x1="584.921" y1="550" x2="584.921" y2="554" stroke="rgb(0,0,0)" />
<text x="605" y="578" fill="rgb(0,0,0)">
5000</text>
<line x1="605.556" y1="550" x2="605.556" y2="558" stroke="rgb(0,0,0)" />
<line x1="626.19" y1="550" x2="626.19" y2="554" stroke="rgb(0,0,0)" />
<line x1="646.825" y1="550" x2="646.825" y2="554" stroke="rgb(0,0,0)" />
<line x1="667.46" y1="550" x2="667.46" y2="554" stroke="rgb(0,0,0)" />
<line x1="688.095" y1="550" x2="688.095" y2="554" stroke="rgb(0,0,0)" />
<text x="708" y="578" fill="rgb(0,0,0)">
6000</text>
<line x1="708.73" y1="550" x2="708.73" y2="558" stroke="rgb(0,0,0)" />
<line x1="729.365" y1="550" x2="729.365" y2="554" stroke="rgb(0,0,0)" />
<line x1="750" y1="550" x2="750" y2="554" stroke="rgb(0,0,0)" />
<text x="409" y="594" fill="rgb(0,0,0)">
N</text>
<line x1="100" y1="50" x2="100" y2="550" stroke="rgb(0,0,0)" />
<text x="58" y="558" fill="rgb(0,0,0)">
0</text>
<line x1="100" y1="550" x2="92" y2="550" stroke="rgb(0,0,0)" />
<line x1="100" y1="542.982" x2="96" y2="542.982" stroke="rgb(0,0,0)" />
<line x1="100" y1="535.965" x2="96" y2="535.965" stroke="rgb(0,0,0)" />
<line x1="100" y1="528.947" x2="96" y2="528.947" stroke="rgb(0,0,0)" />
<line x1="100" y1="521.93" x2="96" y2="521.93" stroke="rgb(0,0,0)" />
<text x="52" y="522" fill="rgb(0,0,0)">
20</text>
<line x1="100" y1="514.912" x2="92" y2="514.912" stroke="rgb(0,0,0)" />
<line x1="100" y1="507.895" x2="96" y2="507.895" stroke="rgb(0,0,0)" />
<line x1="100" y1="500.877" x2="96" y2="500.877" stroke="rgb(0,0,0)" />
<line x1="100" y1="493.86" x2="96" y2="493.86" stroke="rgb(0,0,0)" />
<line x1="100" y1="486.842" x2="96" y2="486.842" stroke="rgb(0,0,0)" />
<text x="52" y="487" fill="rgb(0,0,0)">
40</text>
<line x1="100" y1="479.825" x2="92" y2="479.825" stroke="rgb(0,0,0)" />
<line x1="100" y1="472.807" x2="96" y2="472.807" stroke="rgb(0,0,0)" />
<line x1="100" y1="465.789" x2="96" y2="465.789" stroke="rgb(0,0,0)" />
<line x1="100" y1="458.772" x2="96" y2="458.772" stroke="rgb(0,0,0)" />
<line x1="100" y1="451.754" x2="96" y2="451.754" stroke="rgb(0,0,0)" />
<text x="52" y="452" fill="rgb(0,0,0)">
60</text>
<line x1="100" y1="444.737" x2="92" y2="444.737" stroke="rgb(0,0,0)" />
<line x1="100" y1="437.719" x2="96" y2="437.719" stroke="rgb(0,0,0)" />
<line x1="100" y1="430.702" x2="96" y2="430.702" stroke="rgb(0,0,0)" />
<line x1="100" y1="423.684" x2="96" y2="423.684" stroke="rgb(0,0,0)" />
<line x1="100" y1="416.667" x2="96" y2="416.667" stroke="rgb(0,0,0)" />
<text x="52" y="417" fill="rgb(0,0,0)">
80</text>
<line x1="100" y1="409.649" x2="92" y2="409.649" stroke="rgb(0,0,0)" />
<line x1="100" y1="402.632" x2="96" y2="402.632" stroke="rgb(0,0,0)" />
<line x1="100" y1="395.614" x2="96" y2="395.614" stroke="rgb(0,0,0)" />
<line x1="100" y1="388.596" x2="96" y2="388.596" stroke="rgb(0,0,0)" />
<line x1="100" y1="381.579" x2="96" y2="381.579" stroke="rgb(0,0,0)" />
<text x="47" y="382" fill="rgb(0,0,0)">
100</text>
<line x1="100" y1="374.561" x2="92" y2="374.561" stroke="rgb(0,0,0)" />
<line x1="100" y1="367.544" x2="96" y2="367.544" stroke="rgb(0,0,0)" />
<line x1="100" y1="360.526" x2="96" y2="360.526" stroke="rgb(0,0,0)" />
<line x1="100" y1="353.509" x2="96" y2="353.509" stroke="rgb(0,0,0)" />
<line x1="100" y1="346.491" x2="96" y2="346.491" stroke="rgb(0,0,0)" />
<text x="47" y="347" fill="rgb(0,0,0)">
120</text>
<line x1="100" y1="339.474" x2="92" y2="339.474" stroke="rgb(0,0,0)" />
<line x1="100" y1="332.456" x2="96" y2="332.456" stroke="rgb(0,0,0)" />
<line x1="100" y1="325.439" x2="96" y2="325.439" stroke="rgb(0,0,0)" />
<line x1="100" y1="318.421" x2="96" y2="318.421" stroke="rgb(0,0,0)" />
<line x1="100" y1="311.404" x2="96" y2="311.404" stroke="rgb(0,0,0)" />
<text x="47" y="312" fill="rgb(0,0,0)">
140</text>
<line x1="100" y1="304.386" x2="92" y2="304.386" stroke="rgb(0,0,0)" />
<line x1="100" y1="297.368" x2="96" y2="297.368" stroke="rgb(0,0,0)" />
<line x1="100" y1="290.351" x2="96" y2="290.351" stroke="rgb(0,0,0)" />
<line x1="100" y1="283.333" x2="96" y2="283.333" stroke="rgb(0,0,0)" />
<line x1="100" y1="276.316" x2="96" y2="276.316" stroke="rgb(0,0,0)" />
<text x="47" y="277" fill="rgb(0,0,0)">
160</text>
<line x1="100" y1="269.298" x2="92" y2="269.298" stroke="rgb(0,0,0)" />
<line x1="100" y1="262.281" x2="96" y2="262.281" stroke="rgb(0,0,0)" />
<line x1="100" y1="255.263" x2="96" y2="255.263" stroke="rgb(0,0,0)" />
<line x1="100" y1="248.246" x2="96" y2="248.246" stroke="rgb(0,0,0)" />
<line x1="100" y1="241.228" x2="96" y2="241.228" stroke="rgb(0,0,0)" />
<text x="47" y="242" fill="rgb(0,0,0)">
180</text>
<line x1="100" y1="234.211" x2="92" y2="234.211" stroke="rgb(0,0,0)" />
<line x1="100" y1="227.193" x2="96" y2="227.193" stroke="rgb(0,0,0)" />
<line x1="100" y1="220.175" x2="96" y2="220.175" stroke="rgb(0,0,0)" />
<line x1="100" y1="213.158" x2="96" y2="213.158" stroke="rgb(0,0,0)" />
<line x1="100" y1="206.14" x2="96" y2="206.14" stroke="rgb(0,0,0)" />
<text x="46" y="207" fill="rgb(0,0,0)">
200</text>
<line x1="100" y1="199.123" x2="92" y2="199.123" stroke="rgb(0,0,0)" />
<line x1="100" y1="192.105" x2="96" y2="192.105" stroke="rgb(0,0,0)" />
<line x1="100" y1="185.088" x2="96" y2="185.088" stroke="rgb(0,0,0)" />
<line x1="100" y1="178.07" x2="96" y2="178.07" stroke="rgb(0,0,0)" />
<line x1="100" y1="171.053" x2="96" y2="171.053" stroke="rgb(0,0,0)" />
<text x="46" y="172" fill="rgb(0,0,0)">
220</text>
<line x1="100" y1="164.035" x2="92" y2="164.035" stroke="rgb(0,0,0)" />
<line x1="100" y1="157.018" x2="96" y2="157.018" stroke="rgb(0,0,0)" />
<line x1="100" y1="150" x2="96" y2="150" stroke="rgb(0,0,0)" />
<line x1="100" y1="142.982" x2="96" y2="142.982" stroke="rgb(0,0,0)" />
<line x1="100" y1="135.965" x2="96" y2="135.965" stroke="rgb(0,0,0)" />
<text x="46" y="136" fill="rgb(0,0,0)">
240</text>
<line x1="100" y1="128.947" x2="92" y2="128.947" stroke="rgb(0,0,0)" />
<line x1="100" y1="121.93" x2="96" y2="121.93" stroke="rgb(0,0,0)" />
<line x1="100" y1="114.912" x2="96" y2="114.912" stroke="rgb(0,0,0)" />
<line x1="100" y1="107.895" x2="96" y2="107.895" stroke="rgb(0,0,0)" />
<line x1="100" y1="100.877" x2="96" y2="100.877" stroke="rgb(0,0,0)" />
<text x="46" y="101" fill="rgb(0,0,0)">
260</text>
<line x1="100" y1="93.8596" x2="92" y2="93.8596" stroke="rgb(0,0,0)" />
<line x1="100" y1="86.8421" x2="96" y2="86.8421" stroke="rgb(0,0,0)" />
<line x1="100" y1="79.8246" x2="96" y2="79.8246" stroke="rgb(0,0,0)" />
<line x1="100" y1="72.807" x2="96" y2="72.807" stroke="rgb(0,0,0)" />
<line x1="100" y1="65.7895" x2="96" y2="65.7895" stroke="rgb(0,0,0)" />
<text x="46" y="66" fill="rgb(0,0,0)">
280</text>
<line x1="100" y1="58.7719" x2="92" y2="58.7719" stroke="rgb(0,0,0)" />
<line x1="100" y1="51.7544" x2="96" y2="51.7544" stroke="rgb(0,0,0)" />
<text x="46" y="367" transform="rotate(-90,46,367)">Time (nanoseconds)</text>
<text x="120" y="66" fill="rgb(200,0,100)">
Linear Search</text>
<text x="120" y="98" fill="rgb(100,20,220)">
Binary Search (w/ Sort Amortized)</text>
<clipPath>
<rect x="100" y="50" width="650" height="500" fill="rgb(0,0,0)" />
</clipPath>
<line x1="100" y1="455.263" x2="110.317" y2="409.649" stroke="rgb(200,0,100)" />
<line x1="110.317" y1="409.649" x2="130.952" y2="309.649" stroke="rgb(200,0,100)" />
<line x1="130.952" y1="309.649" x2="172.222" y2="179.825" stroke="rgb(200,0,100)" />
<line x1="172.222" y1="179.825" x2="254.762" y2="100.877" stroke="rgb(200,0,100)" />
<line x1="254.762" y1="100.877" x2="419.841" y2="69.2982" stroke="rgb(200,0,100)" />
<line x1="419.841" y1="69.2982" x2="750" y2="50" stroke="rgb(200,0,100)" />
<line x1="100" y1="504.386" x2="110.317" y2="504.386" stroke="rgb(100,20,220)" />
<line x1="110.317" y1="504.386" x2="130.952" y2="500.877" stroke="rgb(100,20,220)" />
<line x1="130.952" y1="500.877" x2="172.222" y2="490.351" stroke="rgb(100,20,220)" />
<line x1="172.222" y1="490.351" x2="254.762" y2="483.333" stroke="rgb(100,20,220)" />
<line x1="254.762" y1="483.333" x2="419.841" y2="469.298" stroke="rgb(100,20,220)" />
<line x1="419.841" y1="469.298" x2="750" y2="474.561" stroke="rgb(100,20,220)" />
</svg>

