<?xml version="1.0" encoding="utf-8"?>
<svg version="1.1" baseProfile="full" width="800" height="600" xmlns="http://www.w3.org/2000/svg">
<clipPath>
<rect x="0" y="0" width="800" height="600" fill="rgb(0,0,0)" />
</clipPath>
<text x="270" y="34" fill="rgb(0,0,0)">
PriorityQueue.pop() Versus vector methods</text>
<line x1="158.858" y1="50" x2="158.858" y2="550" stroke="rgb(200,200,200)" />
<line x1="222.835" y1="50" x2="222.835" y2="550" stroke="rgb(200,200,200)" />
<line x1="286.811" y1="50" x2="286.811" y2="550" stroke="rgb(200,200,200)" />
<line x1="350.787" y1="50" x2="350.787" y2="550" stroke="rgb(200,200,200)" />
<line x1="414.764" y1="50" x2="414.764" y2="550" stroke="rgb(200,200,200)" />
<line x1="478.74" y1="50" x2="478.74" y2="550" stroke="rgb(200,200,200)" />
<line x1="542.717" y1="50" x2="542.717" y2="550" stroke="rgb(200,200,200)" />
<line x1="606.693" y1="50" x2="606.693" y2="550" stroke="rgb(200,200,200)" />
<line x1="670.669" y1="50" x2="670.669" y2="550" stroke="rgb(200,200,200)" />
<line x1="734.646" y1="50" x2="734.646" y2="550" stroke="rgb(200,200,200)" />
<line x1="100" y1="550" x2="750" y2="550" stroke="rgb(200,200,200)" />
<line x1="100" y1="513.168" x2="750" y2="513.168" stroke="rgb(200,200,200)" />
<line x1="100" y1="476.335" x2="750" y2="476.335" stroke="rgb(200,200,200)" />
<line x1="100" y1="439.503" x2="750" y2="439.503" stroke="rgb(200,200,200)" />
<line x1="100" y1="402.67" x2="750" y2="402.67" stroke="rgb(200,200,200)" />
<line x1="100" y1="365.838" x2="750" y2="365.838" stroke="rgb(200,200,200)" />
<line x1="100" y1="329.006" x2="750" y2="329.006" stroke="rgb(200,200,200)" />
<line x1="100" y1="292.173" x2="750" y2="292.173" stroke="rgb(200,200,200)" />
<line x1="100" y1="255.341" x2="750" y2="255.341" stroke="rgb(200,200,200)" />
<line x1="100" y1="218.508" x2="750" y2="218.508" stroke="rgb(200,200,200)" />
<line x1="100" y1="181.676" x2="750" y2="181.676" stroke="rgb(200,200,200)" />
<line x1="100" y1="144.843" x2="750" y2="144.843" stroke="rgb(200,200,200)" />
<line x1="100" y1="108.011" x2="750" y2="108.011" stroke="rgb(200,200,200)" />
<line x1="100" y1="71.1786" x2="750" y2="71.1786" stroke="rgb(200,200,200)" />
<line x1="100" y1="550" x2="750" y2="550" stroke="rgb(0,0,0)" />
<line x1="107.677" y1="550" x2="107.677" y2="554" stroke="rgb(0,0,0)" />
<line x1="120.472" y1="550" x2="120.472" y2="554" stroke="rgb(0,0,0)" />
<line x1="133.268" y1="550" x2="133.268" y2="554" stroke="rgb(0,0,0)" />
<line x1="146.063" y1="550" x2="146.063" y2="554" stroke="rgb(0,0,0)" />
<text x="158" y="578" fill="rgb(0,0,0)">
200</text>
<line x1="158.858" y1="550" x2="158.858" y2="558" stroke="rgb(0,0,0)" />
<line x1="171.654" y1="550" x2="171.654" y2="554" stroke="rgb(0,0,0)" />
<line x1="184.449" y1="550" x2="184.449" y2="554" stroke="rgb(0,0,0)" />
<line x1="197.244" y1="550" x2="197.244" y2="554" stroke="rgb(0,0,0)" />
<line x1="210.039" y1="550" x2="210.039" y2="554" stroke="rgb(0,0,0)" />
<text x="222" y="578" fill="rgb(0,0,0)">
400</text>
<line x1="222.835" y1="550" x2="222.835" y2="558" stroke="rgb(0,0,0)" />
<line x1="235.63" y1="550" x2="235.63" y2="554" stroke="rgb(0,0,0)" />
<line x1="248.425" y1="550" x2="248.425" y2="554" stroke="rgb(0,0,0)" />
<line x1="261.22" y1="550" x2="261.22" y2="554" stroke="rgb(0,0,0)" />
<line x1="274.016" y1="550" x2="274.016" y2="554" stroke="rgb(0,0,0)" />
<text x="286" y="578" fill="rgb(0,0,0)">
600</text>
<line x1="286.811" y1="550" x2="286.811" y2="558" stroke="rgb(0,0,0)" />
<line x1="299.606" y1="550" x2="299.606" y2="554" stroke="rgb(0,0,0)" />
<line x1="312.402" y1="550" x2="312.402" y2="554" stroke="rgb(0,0,0)" />
<line x1="325.197" y1="550" x2="325.197" y2="554" stroke="rgb(0,0,0)" />
<line x1="337.992" y1="550" x2="337.992" y2="554" stroke="rgb(0,0,0)" />
<text x="350" y="578" fill="rgb(0,0,0)">
800</text>
<line x1="350.787" y1="550" x2="350.787" y2="558" stroke="rgb(0,0,0)" />
<line x1="363.583" y1="550" x2="363.583" y2="554" stroke="rgb(0,0,0)" />
<line x1="376.378" y1="550" x2="376.378" y2="554" stroke="rgb(0,0,0)" />
<line x1="389.173" y1="550" x2="389.173" y2="554" stroke="rgb(0,0,0)" />
<line x1="401.969" y1="550" x2="401.969" y2="554" stroke="rgb(0,0,0)" />
<text x="414" y="578" fill="rgb(0,0,0)">
1000</text>
<line x1="414.764" y1="550" x2="414.764" y2="558" stroke="rgb(0,0,0)" />
<line x1="427.559" y1="550" x2="427.559" y2="554" stroke="rgb(0,0,0)" />
<line x1="440.354" y1="550" x2="440.354" y2="554" stroke="rgb(0,0,0)" />
<line x1="453.15" y1="550" x2="453.15" y2="554" stroke="rgb(0,0,0)" />
<line x1="465.945" y1="550" x2="465.945" y2="554" stroke="rgb(0,0,0)" />
<text x="478" y="578" fill="rgb(0,0,0)">
1200</text>
<line x1="478.74" y1="550" x2="478.74" y2="558" stroke="rgb(0,0,0)" />
<line x1="491.535" y1="550" x2="491.535" y2="554" stroke="rgb(0,0,0)" />
<line x1="504.331" y1="550" x2="504.331" y2="554" stroke="rgb(0,0,0)" />
<line x1="517.126" y1="550" x2="517.126" y2="554" stroke="rgb(0,0,0)" />
<line x1="529.921" y1="550" x2="529.921" y2="554" stroke="rgb(0,0,0)" />
<text x="542" y="578" fill="rgb(0,0,0)">
1400</text>
<line x1="542.717" y1="550" x2="542.717" y2="558" stroke="rgb(0,0,0)" />
<line x1="555.512" y1="550" x2="555.512" y2="554" stroke="rgb(0,0,0)" />
<line x1="568.307" y1="550" x2="568.307" y2="554" stroke="rgb(0,0,0)" />
<line x1="581.102" y1="550" x2="581.102" y2="554" stroke="rgb(0,0,0)" />
<line x1="593.898" y1="550" x2="593.898" y2="554" stroke="rgb(0,0,0)" />
<text x="606" y="578" fill="rgb(0,0,0)">
1600</text>
<line x1="606.693" y1="550" x2="606.693" y2="558" stroke="rgb(0,0,0)" />
<line x1="619.488" y1="550" x2="619.488" y2="554" stroke="rgb(0,0,0)" />
<line x1="632.283" y1="550" x2="632.283" y2="554" stroke="rgb(0,0,0)" />
<line x1="645.079" y1="550" x2="645.079" y2="554" stroke="rgb(0,0,0)" />
<line x1="657.874" y1="550" x2="657.874" y2="554" stroke="rgb(0,0,0)" />
<text x="670" y="578" fill="rgb(0,0,0)">
1800</text>
<line x1="670.669" y1="550" x2="670.669" y2="558" stroke="rgb(0,0,0)" />
<line x1="683.465" y1="550" x2="683.465" y2="554" stroke="rgb(0,0,0)" />
<line x1="696.26" y1="550" x2="696.26" y2="554" stroke="rgb(0,0,0)" />
<line x1="709.055" y1="550" x2="709.055" y2="554" stroke="rgb(0,0,0)" />
<line x1="721.85" y1="550" x2="721.85" y2="554" stroke="rgb(0,0,0)" />
<text x="734" y="578" fill="rgb(0,0,0)">
2000</text>
<line x1="734.646" y1="550" x2="734.646" y2="558" stroke="rgb(0,0,0)" />
<line x1="747.441" y1="550" x2="747.441" y2="554" stroke="rgb(0,0,0)" />
<text x="409" y="594" fill="rgb(0,0,0)">
N</text>
<line x1="100" y1="50" x2="100" y2="550" stroke="rgb(0,0,0)" />
<text x="58" y="558" fill="rgb(0,0,0)">
0</text>
<line x1="100" y1="550" x2="92" y2="550" stroke="rgb(0,0,0)" />
<line x1="100" y1="542.634" x2="96" y2="542.634" stroke="rgb(0,0,0)" />
<line x1="100" y1="535.267" x2="96" y2="535.267" stroke="rgb(0,0,0)" />
<line x1="100" y1="527.901" x2="96" y2="527.901" stroke="rgb(0,0,0)" />
<line x1="100" y1="520.534" x2="96" y2="520.534" stroke="rgb(0,0,0)" />
<text x="42" y="521" fill="rgb(0,0,0)">
1000</text>
<line x1="100" y1="513.168" x2="92" y2="513.168" stroke="rgb(0,0,0)" />
<line x1="100" y1="505.801" x2="96" y2="505.801" stroke="rgb(0,0,0)" />
<line x1="100" y1="498.435" x2="96" y2="498.435" stroke="rgb(0,0,0)" />
<line x1="100" y1="491.068" x2="96" y2="491.068" stroke="rgb(0,0,0)" />
<line x1="100" y1="483.702" x2="96" y2="483.702" stroke="rgb(0,0,0)" />
<text x="40" y="484" fill="rgb(0,0,0)">
2000</text>
<line x1="100" y1="476.335" x2="92" y2="476.335" stroke="rgb(0,0,0)" />
<line x1="100" y1="468.969" x2="96" y2="468.969" stroke="rgb(0,0,0)" />
<line x1="100" y1="461.602" x2="96" y2="461.602" stroke="rgb(0,0,0)" />
<line x1="100" y1="454.236" x2="96" y2="454.236" stroke="rgb(0,0,0)" />
<line x1="100" y1="446.869" x2="96" y2="446.869" stroke="rgb(0,0,0)" />
<text x="40" y="447" fill="rgb(0,0,0)">
3000</text>
<line x1="100" y1="439.503" x2="92" y2="439.503" stroke="rgb(0,0,0)" />
<line x1="100" y1="432.136" x2="96" y2="432.136" stroke="rgb(0,0,0)" />
<line x1="100" y1="424.77" x2="96" y2="424.77" stroke="rgb(0,0,0)" />
<line x1="100" y1="417.403" x2="96" y2="417.403" stroke="rgb(0,0,0)" />
<line x1="100" y1="410.037" x2="96" y2="410.037" stroke="rgb(0,0,0)" />
<text x="40" y="410" fill="rgb(0,0,0)">
4000</text>
<line x1="100" y1="402.67" x2="92" y2="402.67" stroke="rgb(0,0,0)" />
<line x1="100" y1="395.304" x2="96" y2="395.304" stroke="rgb(0,0,0)" />
<line x1="100" y1="387.937" x2="96" y2="387.937" stroke="rgb(0,0,0)" />
<line x1="100" y1="380.571" x2="96" y2="380.571" stroke="rgb(0,0,0)" />
<line x1="100" y1="373.204" x2="96" y2="373.204" stroke="rgb(0,0,0)" />
<text x="40" y="373" fill="rgb(0,0,0)">
5000</text>
<line x1="100" y1="365.838" x2="92" y2="365.838" stroke="rgb(0,0,0)" />
<line x1="100" y1="358.471" x2="96" y2="358.471" stroke="rgb(0,0,0)" />
<line x1="100" y1="351.105" x2="96" y2="351.105" stroke="rgb(0,0,0)" />
<line x1="100" y1="343.738" x2="96" y2="343.738" stroke="rgb(0,0,0)" />
<line x1="100" y1="336.372" x2="96" y2="336.372" stroke="rgb(0,0,0)" />
<text x="40" y="337" fill="rgb(0,0,0)">
6000</text>
<line x1="100" y1="329.006" x2="92" y2="329.006" stroke="rgb(0,0,0)" />
<line x1="100" y1="321.639" x2="96" y2="321.639" stroke="rgb(0,0,0)" />
<line x1="100" y1="314.273" x2="96" y2="314.273" stroke="rgb(0,0,0)" />
<line x1="100" y1="306.906" x2="96" y2="306.906" stroke="rgb(0,0,0)" />
<line x1="100" y1="299.54" x2="96" y2="299.54" stroke="rgb(0,0,0)" />
<text x="40" y="300" fill="rgb(0,0,0)">
7000</text>
<line x1="100" y1="292.173" x2="92" y2="292.173" stroke="rgb(0,0,0)" />
<line x1="100" y1="284.807" x2="96" y2="284.807" stroke="rgb(0,0,0)" />
<line x1="100" y1="277.44" x2="96" y2="277.44" stroke="rgb(0,0,0)" />
<line x1="100" y1="270.074" x2="96" y2="270.074" stroke="rgb(0,0,0)" />
<line x1="100" y1="262.707" x2="96" y2="262.707" stroke="rgb(0,0,0)" />
<text x="40" y="263" fill="rgb(0,0,0)">
8000</text>
<line x1="100" y1="255.341" x2="92" y2="255.341" stroke="rgb(0,0,0)" />
<line x1="100" y1="247.974" x2="96" y2="247.974" stroke="rgb(0,0,0)" />
<line x1="100" y1="240.608" x2="96" y2="240.608" stroke="rgb(0,0,0)" />
<line x1="100" y1="233.241" x2="96" y2="233.241" stroke="rgb(0,0,0)" />
<line x1="100" y1="225.875" x2="96" y2="225.875" stroke="rgb(0,0,0)" />
<text x="40" y="226" fill="rgb(0,0,0)">
9000</text>
<line x1="100" y1="218.508" x2="92" y2="218.508" stroke="rgb(0,0,0)" />
<line x1="100" y1="211.142" x2="96" y2="211.142" stroke="rgb(0,0,0)" />
<line x1="100" y1="203.775" x2="96" y2="203.775" stroke="rgb(0,0,0)" />
<line x1="100" y1="196.409" x2="96" y2="196.409" stroke="rgb(0,0,0)" />
<line x1="100" y1="189.042" x2="96" y2="189.042" stroke="rgb(0,0,0)" />
<text x="36" y="189" fill="rgb(0,0,0)">
10000</text>
<line x1="100" y1="181.676" x2="92" y2="181.676" stroke="rgb(0,0,0)" />
<line x1="100" y1="174.309" x2="96" y2="174.309" stroke="rgb(0,0,0)" />
<line x1="100" y1="166.943" x2="96" y2="166.943" stroke="rgb(0,0,0)" />
<line x1="100" y1="159.576" x2="96" y2="159.576" stroke="rgb(0,0,0)" />
<line x1="100" y1="152.21" x2="96" y2="152.21" stroke="rgb(0,0,0)" />
<text x="37" y="152" fill="rgb(0,0,0)">
11000</text>
<line x1="100" y1="144.843" x2="92" y2="144.843" stroke="rgb(0,0,0)" />
<line x1="100" y1="137.477" x2="96" y2="137.477" stroke="rgb(0,0,0)" />
<line x1="100" y1="130.111" x2="96" y2="130.111" stroke="rgb(0,0,0)" />
<line x1="100" y1="122.744" x2="96" y2="122.744" stroke="rgb(0,0,0)" />
<line x1="100" y1="115.378" x2="96" y2="115.378" stroke="rgb(0,0,0)" />
<text x="36" y="116" fill="rgb(0,0,0)">
12000</text>
<line x1="100" y1="108.011" x2="92" y2="108.011" stroke="rgb(0,0,0)" />
<line x1="100" y1="100.645" x2="96" y2="100.645" stroke="rgb(0,0,0)" />
<line x1="100" y1="93.2781" x2="96" y2="93.2781" stroke="rgb(0,0,0)" />
<line x1="100" y1="85.9116" x2="96" y2="85.9116" stroke="rgb(0,0,0)" />
<line x1="100" y1="78.5451" x2="96" y2="78.5451" stroke="rgb(0,0,0)" />
<text x="36" y="79" fill="rgb(0,0,0)">
13000</text>
<line x1="100" y1="71.1786" x2="92" y2="71.1786" stroke="rgb(0,0,0)" />
<line x1="100" y1="63.8122" x2="96" y2="63.8122" stroke="rgb(0,0,0)" />
<line x1="100" y1="56.4457" x2="96" y2="56.4457" stroke="rgb(0,0,0)" />
<text x="36" y="370" transform="rotate(-90,36,370)">Time (microseconds)</text>
<text x="120" y="66" fill="rgb(200,0,100)">
PriorityQueue.pop()</text>
<text x="120" y="98" fill="rgb(100,20,220)">
vector equivalent</text>
<clipPath>
<rect x="100" y="50" width="650" height="500" fill="rgb(0,0,0)" />
</clipPath>
<line x1="100" y1="549.448" x2="105.118" y2="549.042" stroke="rgb(200,0,100)" />
<line x1="105.118" y1="549.042" x2="115.354" y2="547.864" stroke="rgb(200,0,100)" />
<line x1="115.354" y1="547.864" x2="135.827" y2="544.843" stroke="rgb(200,0,100)" />
<line x1="135.827" y1="544.843" x2="176.772" y2="529.669" stroke="rgb(200,0,100)" />
<line x1="176.772" y1="529.669" x2="258.661" y2="527.164" stroke="rgb(200,0,100)" />
<line x1="258.661" y1="527.164" x2="422.441" y2="513.61" stroke="rgb(200,0,100)" />
<line x1="422.441" y1="513.61" x2="750" y2="513.204" stroke="rgb(200,0,100)" />
<line x1="100" y1="547.164" x2="105.118" y2="545.764" stroke="rgb(100,20,220)" />
<line x1="105.118" y1="545.764" x2="115.354" y2="541.16" stroke="rgb(100,20,220)" />
<line x1="115.354" y1="541.16" x2="135.827" y2="487.753" stroke="rgb(100,20,220)" />
<line x1="135.827" y1="487.753" x2="176.772" y2="479.613" stroke="rgb(100,20,220)" />
<line x1="176.772" y1="479.613" x2="258.661" y2="441.897" stroke="rgb(100,20,220)" />
<line x1="258.661" y1="441.897" x2="422.441" y2="235.672" stroke="rgb(100,20,220)" />
<line x1="422.441" y1="235.672" x2="750" y2="50" stroke="rgb(100,20,220)" />
</svg>

