<?xml version="1.0" encoding="utf-8"?>
<svg version="1.1" baseProfile="full" width="800" height="600" xmlns="http://www.w3.org/2000/svg">
<clipPath>
<rect x="0" y="0" width="800" height="600" fill="rgb(0,0,0)" />
</clipPath>
<text x="279" y="34" fill="rgb(0,0,0)">
Number of Elements Sorted Versus Time</text>
<line x1="158.858" y1="50" x2="158.858" y2="550" stroke="rgb(200,200,200)" />
<line x1="222.835" y1="50" x2="222.835" y2="550" stroke="rgb(200,200,200)" />
<line x1="286.811" y1="50" x2="286.811" y2="550" stroke="rgb(200,200,200)" />
<line x1="350.787" y1="50" x2="350.787" y2="550" stroke="rgb(200,200,200)" />
<line x1="414.764" y1="50" x2="414.764" y2="550" stroke="rgb(200,200,200)" />
<line x1="478.74" y1="50" x2="478.74" y2="550" stroke="rgb(200,200,200)" />
<line x1="542.717" y1="50" x2="542.717" y2="550" stroke="rgb(200,200,200)" />
<line x1="606.693" y1="50" x2="606.693" y2="550" stroke="rgb(200,200,200)" />
<line x1="670.669" y1="50" x2="670.669" y2="550" stroke="rgb(200,200,200)" />
<line x1="734.646" y1="50" x2="734.646" y2="550" stroke="rgb(200,200,200)" />
<line x1="100" y1="550" x2="750" y2="550" stroke="rgb(200,200,200)" />
<line x1="100" y1="495.295" x2="750" y2="495.295" stroke="rgb(200,200,200)" />
<line x1="100" y1="440.591" x2="750" y2="440.591" stroke="rgb(200,200,200)" />
<line x1="100" y1="385.886" x2="750" y2="385.886" stroke="rgb(200,200,200)" />
<line x1="100" y1="331.182" x2="750" y2="331.182" stroke="rgb(200,200,200)" />
<line x1="100" y1="276.477" x2="750" y2="276.477" stroke="rgb(200,200,200)" />
<line x1="100" y1="221.772" x2="750" y2="221.772" stroke="rgb(200,200,200)" />
<line x1="100" y1="167.068" x2="750" y2="167.068" stroke="rgb(200,200,200)" />
<line x1="100" y1="112.363" x2="750" y2="112.363" stroke="rgb(200,200,200)" />
<line x1="100" y1="57.6587" x2="750" y2="57.6587" stroke="rgb(200,200,200)" />
<line x1="100" y1="550" x2="750" y2="550" stroke="rgb(0,0,0)" />
<line x1="107.677" y1="550" x2="107.677" y2="554" stroke="rgb(0,0,0)" />
<line x1="120.472" y1="550" x2="120.472" y2="554" stroke="rgb(0,0,0)" />
<line x1="133.268" y1="550" x2="133.268" y2="554" stroke="rgb(0,0,0)" />
<line x1="146.063" y1="550" x2="146.063" y2="554" stroke="rgb(0,0,0)" />
<text x="158" y="578" fill="rgb(0,0,0)">
200</text>
<line x1="158.858" y1="550" x2="158.858" y2="558" stroke="rgb(0,0,0)" />
<line x1="171.654" y1="550" x2="171.654" y2="554" stroke="rgb(0,0,0)" />
<line x1="184.449" y1="550" x2="184.449" y2="554" stroke="rgb(0,0,0)" />
<line x1="197.244" y1="550" x2="197.244" y2="554" stroke="rgb(0,0,0)" />
<line x1="210.039" y1="550" x2="210.039" y2="554" stroke="rgb(0,0,0)" />
<text x="222" y="578" fill="rgb(0,0,0)">
400</text>
<line x1="222.835" y1="550" x2="222.835" y2="558" stroke="rgb(0,0,0)" />
<line x1="235.63" y1="550" x2="235.63" y2="554" stroke="rgb(0,0,0)" />
<line x1="248.425" y1="550" x2="248.425" y2="554" stroke="rgb(0,0,0)" />
<line x1="261.22" y1="550" x2="261.22" y2="554" stroke="rgb(0,0,0)" />
<line x1="274.016" y1="550" x2="274.016" y2="554" stroke="rgb(0,0,0)" />
<text x="286" y="578" fill="rgb(0,0,0)">
600</text>
<line x1="286.811" y1="550" x2="286.811" y2="558" stroke="rgb(0,0,0)" />
<line x1="299.606" y1="550" x2="299.606" y2="554" stroke="rgb(0,0,0)" />
<line x1="312.402" y1="550" x2="312.402" y2="554" stroke="rgb(0,0,0)" />
<line x1="325.197" y1="550" x2="325.197" y2="554" stroke="rgb(0,0,0)" />
<line x1="337.992" y1="550" x2="337.992" y2="554" stroke="rgb(0,0,0)" />
<text x="350" y="578" fill="rgb(0,0,0)">
800</text>
<line x1="350.787" y1="550" x2="350.787" y2="558" stroke="rgb(0,0,0)" />
<line x1="363.583" y1="550" x2="363.583" y2="554" stroke="rgb(0,0,0)" />
<line x1="376.378" y1="550" x2="376.378" y2="554" stroke="rgb(0,0,0)" />
<line x1="389.173" y1="550" x2="389.173" y2="554" stroke="rgb(0,0,0)" />
<line x1="401.969" y1="550" x2="401.969" y2="554" stroke="rgb(0,0,0)" />
<text x="414" y="578" fill="rgb(0,0,0)">
1000</text>
<line x1="414.764" y1="550" x2="414.764" y2="558" stroke="rgb(0,0,0)" />
<line x1="427.559" y1="550" x2="427.559" y2="554" stroke="rgb(0,0,0)" />
<line x1="440.354" y1="550" x2="440.354" y2="554" stroke="rgb(0,0,0)" />
<line x1="453.15" y1="550" x2="453.15" y2="554" stroke="rgb(0,0,0)" />
<line x1="465.945" y1="550" x2="465.945" y2="554" stroke="rgb(0,0,0)" />
<text x="478" y="578" fill="rgb(0,0,0)">
1200</text>
<line x1="478.74" y1="550" x2="478.74" y2="558" stroke="rgb(0,0,0)" />
<line x1="491.535" y1="550" x2="491.535" y2="554" stroke="rgb(0,0,0)" />
<line x1="504.331" y1="550" x2="504.331" y2="554" stroke="rgb(0,0,0)" />
<line x1="517.126" y1="550" x2="517.126" y2="554" stroke="rgb(0,0,0)" />
<line x1="529.921" y1="550" x2="529.921" y2="554" stroke="rgb(0,0,0)" />
<text x="542" y="578" fill="rgb(0,0,0)">
1400</text>
<line x1="542.717" y1="550" x2="542.717" y2="558" stroke="rgb(0,0,0)" />
<line x1="555.512" y1="550" x2="555.512" y2="554" stroke="rgb(0,0,0)" />
<line x1="568.307" y1="550" x2="568.307" y2="554" stroke="rgb(0,0,0)" />
<line x1="581.102" y1="550" x2="581.102" y2="554" stroke="rgb(0,0,0)" />
<line x1="593.898" y1="550" x2="593.898" y2="554" stroke="rgb(0,0,0)" />
<text x="606" y="578" fill="rgb(0,0,0)">
1600</text>
<line x1="606.693" y1="550" x2="606.693" y2="558" stroke="rgb(0,0,0)" />
<line x1="619.488" y1="550" x2="619.488" y2="554" stroke="rgb(0,0,0)" />
<line x1="632.283" y1="550" x2="632.283" y2="554" stroke="rgb(0,0,0)" />
<line x1="645.079" y1="550" x2="645.079" y2="554" stroke="rgb(0,0,0)" />
<line x1="657.874" y1="550" x2="657.874" y2="554" stroke="rgb(0,0,0)" />
<text x="670" y="578" fill="rgb(0,0,0)">
1800</text>
<line x1="670.669" y1="550" x2="670.669" y2="558" stroke="rgb(0,0,0)" />
<line x1="683.465" y1="550" x2="683.465" y2="554" stroke="rgb(0,0,0)" />
<line x1="696.26" y1="550" x2="696.26" y2="554" stroke="rgb(0,0,0)" />
<line x1="709.055" y1="550" x2="709.055" y2="554" stroke="rgb(0,0,0)" />
<line x1="721.85" y1="550" x2="721.85" y2="554" stroke="rgb(0,0,0)" />
<text x="734" y="578" fill="rgb(0,0,0)">
2000</text>
<line x1="734.646" y1="550" x2="734.646" y2="558" stroke="rgb(0,0,0)" />
<line x1="747.441" y1="550" x2="747.441" y2="554" stroke="rgb(0,0,0)" />
<text x="409" y="594" fill="rgb(0,0,0)">
N</text>
<line x1="100" y1="50" x2="100" y2="550" stroke="rgb(0,0,0)" />
<text x="58" y="558" fill="rgb(0,0,0)">
0</text>
<line x1="100" y1="550" x2="92" y2="550" stroke="rgb(0,0,0)" />
<line x1="100" y1="539.059" x2="96" y2="539.059" stroke="rgb(0,0,0)" />
<line x1="100" y1="528.118" x2="96" y2="528.118" stroke="rgb(0,0,0)" />
<line x1="100" y1="517.177" x2="96" y2="517.177" stroke="rgb(0,0,0)" />
<line x1="100" y1="506.236" x2="96" y2="506.236" stroke="rgb(0,0,0)" />
<text x="46" y="503" fill="rgb(0,0,0)">
200</text>
<line x1="100" y1="495.295" x2="92" y2="495.295" stroke="rgb(0,0,0)" />
<line x1="100" y1="484.354" x2="96" y2="484.354" stroke="rgb(0,0,0)" />
<line x1="100" y1="473.414" x2="96" y2="473.414" stroke="rgb(0,0,0)" />
<line x1="100" y1="462.473" x2="96" y2="462.473" stroke="rgb(0,0,0)" />
<line x1="100" y1="451.532" x2="96" y2="451.532" stroke="rgb(0,0,0)" />
<text x="46" y="448" fill="rgb(0,0,0)">
400</text>
<line x1="100" y1="440.591" x2="92" y2="440.591" stroke="rgb(0,0,0)" />
<line x1="100" y1="429.65" x2="96" y2="429.65" stroke="rgb(0,0,0)" />
<line x1="100" y1="418.709" x2="96" y2="418.709" stroke="rgb(0,0,0)" />
<line x1="100" y1="407.768" x2="96" y2="407.768" stroke="rgb(0,0,0)" />
<line x1="100" y1="396.827" x2="96" y2="396.827" stroke="rgb(0,0,0)" />
<text x="46" y="393" fill="rgb(0,0,0)">
600</text>
<line x1="100" y1="385.886" x2="92" y2="385.886" stroke="rgb(0,0,0)" />
<line x1="100" y1="374.945" x2="96" y2="374.945" stroke="rgb(0,0,0)" />
<line x1="100" y1="364.004" x2="96" y2="364.004" stroke="rgb(0,0,0)" />
<line x1="100" y1="353.063" x2="96" y2="353.063" stroke="rgb(0,0,0)" />
<line x1="100" y1="342.123" x2="96" y2="342.123" stroke="rgb(0,0,0)" />
<text x="46" y="339" fill="rgb(0,0,0)">
800</text>
<line x1="100" y1="331.182" x2="92" y2="331.182" stroke="rgb(0,0,0)" />
<line x1="100" y1="320.241" x2="96" y2="320.241" stroke="rgb(0,0,0)" />
<line x1="100" y1="309.3" x2="96" y2="309.3" stroke="rgb(0,0,0)" />
<line x1="100" y1="298.359" x2="96" y2="298.359" stroke="rgb(0,0,0)" />
<line x1="100" y1="287.418" x2="96" y2="287.418" stroke="rgb(0,0,0)" />
<text x="42" y="284" fill="rgb(0,0,0)">
1000</text>
<line x1="100" y1="276.477" x2="92" y2="276.477" stroke="rgb(0,0,0)" />
<line x1="100" y1="265.536" x2="96" y2="265.536" stroke="rgb(0,0,0)" />
<line x1="100" y1="254.595" x2="96" y2="254.595" stroke="rgb(0,0,0)" />
<line x1="100" y1="243.654" x2="96" y2="243.654" stroke="rgb(0,0,0)" />
<line x1="100" y1="232.713" x2="96" y2="232.713" stroke="rgb(0,0,0)" />
<text x="42" y="229" fill="rgb(0,0,0)">
1200</text>
<line x1="100" y1="221.772" x2="92" y2="221.772" stroke="rgb(0,0,0)" />
<line x1="100" y1="210.832" x2="96" y2="210.832" stroke="rgb(0,0,0)" />
<line x1="100" y1="199.891" x2="96" y2="199.891" stroke="rgb(0,0,0)" />
<line x1="100" y1="188.95" x2="96" y2="188.95" stroke="rgb(0,0,0)" />
<line x1="100" y1="178.009" x2="96" y2="178.009" stroke="rgb(0,0,0)" />
<text x="42" y="175" fill="rgb(0,0,0)">
1400</text>
<line x1="100" y1="167.068" x2="92" y2="167.068" stroke="rgb(0,0,0)" />
<line x1="100" y1="156.127" x2="96" y2="156.127" stroke="rgb(0,0,0)" />
<line x1="100" y1="145.186" x2="96" y2="145.186" stroke="rgb(0,0,0)" />
<line x1="100" y1="134.245" x2="96" y2="134.245" stroke="rgb(0,0,0)" />
<line x1="100" y1="123.304" x2="96" y2="123.304" stroke="rgb(0,0,0)" />
<text x="42" y="120" fill="rgb(0,0,0)">
1600</text>
<line x1="100" y1="112.363" x2="92" y2="112.363" stroke="rgb(0,0,0)" />
<line x1="100" y1="101.422" x2="96" y2="101.422" stroke="rgb(0,0,0)" />
<line x1="100" y1="90.4814" x2="96" y2="90.4814" stroke="rgb(0,0,0)" />
<line x1="100" y1="79.5405" x2="96" y2="79.5405" stroke="rgb(0,0,0)" />
<line x1="100" y1="68.5996" x2="96" y2="68.5996" stroke="rgb(0,0,0)" />
<text x="42" y="65" fill="rgb(0,0,0)">
1800</text>
<line x1="100" y1="57.6587" x2="92" y2="57.6587" stroke="rgb(0,0,0)" />
<text x="42" y="370" transform="rotate(-90,42,370)">Time (microseconds)</text>
<text x="120" y="66" fill="rgb(200,0,100)">
mergeSort</text>
<text x="120" y="98" fill="rgb(100,20,220)">
quickSort</text>
<text x="120" y="130" fill="rgb(50,220,10)">
insertionSort</text>
<text x="120" y="162" fill="rgb(200,209,140)">
hybridSort</text>
<text x="120" y="194" fill="rgb(20,100,100)">
std::sort</text>
<clipPath>
<rect x="100" y="50" width="650" height="500" fill="rgb(0,0,0)" />
</clipPath>
<line x1="100" y1="549.179" x2="105.118" y2="548.632" stroke="rgb(200,0,100)" />
<line x1="105.118" y1="548.632" x2="115.354" y2="547.265" stroke="rgb(200,0,100)" />
<line x1="115.354" y1="547.265" x2="135.827" y2="544.256" stroke="rgb(200,0,100)" />
<line x1="135.827" y1="544.256" x2="176.772" y2="538.786" stroke="rgb(200,0,100)" />
<line x1="176.772" y1="538.786" x2="258.661" y2="525.93" stroke="rgb(200,0,100)" />
<line x1="258.661" y1="525.93" x2="422.441" y2="499.945" stroke="rgb(200,0,100)" />
<line x1="422.441" y1="499.945" x2="750" y2="443.873" stroke="rgb(200,0,100)" />
<line x1="100" y1="549.179" x2="105.118" y2="548.906" stroke="rgb(100,20,220)" />
<line x1="105.118" y1="548.906" x2="115.354" y2="547.812" stroke="rgb(100,20,220)" />
<line x1="115.354" y1="547.812" x2="135.827" y2="545.897" stroke="rgb(100,20,220)" />
<line x1="135.827" y1="545.897" x2="176.772" y2="540.427" stroke="rgb(100,20,220)" />
<line x1="176.772" y1="540.427" x2="258.661" y2="530.033" stroke="rgb(100,20,220)" />
<line x1="258.661" y1="530.033" x2="422.441" y2="510.066" stroke="rgb(100,20,220)" />
<line x1="422.441" y1="510.066" x2="750" y2="467.396" stroke="rgb(100,20,220)" />
<line x1="100" y1="550" x2="105.118" y2="549.727" stroke="rgb(50,220,10)" />
<line x1="105.118" y1="549.727" x2="115.354" y2="549.453" stroke="rgb(50,220,10)" />
<line x1="115.354" y1="549.453" x2="135.827" y2="548.085" stroke="rgb(50,220,10)" />
<line x1="135.827" y1="548.085" x2="176.772" y2="540.7" stroke="rgb(50,220,10)" />
<line x1="176.772" y1="540.7" x2="258.661" y2="518.545" stroke="rgb(50,220,10)" />
<line x1="258.661" y1="518.545" x2="422.441" y2="442.232" stroke="rgb(50,220,10)" />
<line x1="422.441" y1="442.232" x2="750" y2="50" stroke="rgb(50,220,10)" />
<line x1="100" y1="549.727" x2="105.118" y2="549.727" stroke="rgb(200,209,140)" />
<line x1="105.118" y1="549.727" x2="115.354" y2="548.906" stroke="rgb(200,209,140)" />
<line x1="115.354" y1="548.906" x2="135.827" y2="547.538" stroke="rgb(200,209,140)" />
<line x1="135.827" y1="547.538" x2="176.772" y2="544.803" stroke="rgb(200,209,140)" />
<line x1="176.772" y1="544.803" x2="258.661" y2="538.239" stroke="rgb(200,209,140)" />
<line x1="258.661" y1="538.239" x2="422.441" y2="523.468" stroke="rgb(200,209,140)" />
<line x1="422.441" y1="523.468" x2="750" y2="447.429" stroke="rgb(200,209,140)" />
<line x1="100" y1="549.453" x2="105.118" y2="549.453" stroke="rgb(20,100,100)" />
<line x1="105.118" y1="549.453" x2="115.354" y2="548.085" stroke="rgb(20,100,100)" />
<line x1="115.354" y1="548.085" x2="135.827" y2="546.171" stroke="rgb(20,100,100)" />
<line x1="135.827" y1="546.171" x2="176.772" y2="540.7" stroke="rgb(20,100,100)" />
<line x1="176.772" y1="540.7" x2="258.661" y2="529.212" stroke="rgb(20,100,100)" />
<line x1="258.661" y1="529.212" x2="422.441" y2="504.869" stroke="rgb(20,100,100)" />
<line x1="422.441" y1="504.869" x2="750" y2="361.543" stroke="rgb(20,100,100)" />
</svg>

