<?xml version="1.0" encoding="utf-8"?>
<svg version="1.1" baseProfile="full" width="800" height="600" xmlns="http://www.w3.org/2000/svg">
<clipPath>
<rect x="0" y="0" width="800" height="600" fill="rgb(0,0,0)" />
</clipPath>
<text x="279" y="34" fill="rgb(0,0,0)">
Number of Elements Sorted Versus Time</text>
<line x1="158.858" y1="50" x2="158.858" y2="550" stroke="rgb(200,200,200)" />
<line x1="222.835" y1="50" x2="222.835" y2="550" stroke="rgb(200,200,200)" />
<line x1="286.811" y1="50" x2="286.811" y2="550" stroke="rgb(200,200,200)" />
<line x1="350.787" y1="50" x2="350.787" y2="550" stroke="rgb(200,200,200)" />
<line x1="414.764" y1="50" x2="414.764" y2="550" stroke="rgb(200,200,200)" />
<line x1="478.74" y1="50" x2="478.74" y2="550" stroke="rgb(200,200,200)" />
<line x1="542.717" y1="50" x2="542.717" y2="550" stroke="rgb(200,200,200)" />
<line x1="606.693" y1="50" x2="606.693" y2="550" stroke="rgb(200,200,200)" />
<line x1="670.669" y1="50" x2="670.669" y2="550" stroke="rgb(200,200,200)" />
<line x1="734.646" y1="50" x2="734.646" y2="550" stroke="rgb(200,200,200)" />
<line x1="100" y1="550" x2="750" y2="550" stroke="rgb(200,200,200)" />
<line x1="100" y1="522.707" x2="750" y2="522.707" stroke="rgb(200,200,200)" />
<line x1="100" y1="495.415" x2="750" y2="495.415" stroke="rgb(200,200,200)" />
<line x1="100" y1="468.122" x2="750" y2="468.122" stroke="rgb(200,200,200)" />
<line x1="100" y1="440.83" x2="750" y2="440.83" stroke="rgb(200,200,200)" />
<line x1="100" y1="413.537" x2="750" y2="413.537" stroke="rgb(200,200,200)" />
<line x1="100" y1="386.245" x2="750" y2="386.245" stroke="rgb(200,200,200)" />
<line x1="100" y1="358.952" x2="750" y2="358.952" stroke="rgb(200,200,200)" />
<line x1="100" y1="331.659" x2="750" y2="331.659" stroke="rgb(200,200,200)" />
<line x1="100" y1="304.367" x2="750" y2="304.367" stroke="rgb(200,200,200)" />
<line x1="100" y1="277.074" x2="750" y2="277.074" stroke="rgb(200,200,200)" />
<line x1="100" y1="249.782" x2="750" y2="249.782" stroke="rgb(200,200,200)" />
<line x1="100" y1="222.489" x2="750" y2="222.489" stroke="rgb(200,200,200)" />
<line x1="100" y1="195.197" x2="750" y2="195.197" stroke="rgb(200,200,200)" />
<line x1="100" y1="167.904" x2="750" y2="167.904" stroke="rgb(200,200,200)" />
<line x1="100" y1="140.611" x2="750" y2="140.611" stroke="rgb(200,200,200)" />
<line x1="100" y1="113.319" x2="750" y2="113.319" stroke="rgb(200,200,200)" />
<line x1="100" y1="86.0262" x2="750" y2="86.0262" stroke="rgb(200,200,200)" />
<line x1="100" y1="58.7336" x2="750" y2="58.7336" stroke="rgb(200,200,200)" />
<line x1="100" y1="550" x2="750" y2="550" stroke="rgb(0,0,0)" />
<line x1="107.677" y1="550" x2="107.677" y2="554" stroke="rgb(0,0,0)" />
<line x1="120.472" y1="550" x2="120.472" y2="554" stroke="rgb(0,0,0)" />
<line x1="133.268" y1="550" x2="133.268" y2="554" stroke="rgb(0,0,0)" />
<line x1="146.063" y1="550" x2="146.063" y2="554" stroke="rgb(0,0,0)" />
<text x="158" y="578" fill="rgb(0,0,0)">
200</text>
<line x1="158.858" y1="550" x2="158.858" y2="558" stroke="rgb(0,0,0)" />
<line x1="171.654" y1="550" x2="171.654" y2="554" stroke="rgb(0,0,0)" />
<line x1="184.449" y1="550" x2="184.449" y2="554" stroke="rgb(0,0,0)" />
<line x1="197.244" y1="550" x2="197.244" y2="554" stroke="rgb(0,0,0)" />
<line x1="210.039" y1="550" x2="210.039" y2="554" stroke="rgb(0,0,0)" />
<text x="222" y="578" fill="rgb(0,0,0)">
400</text>
<line x1="222.835" y1="550" x2="222.835" y2="558" stroke="rgb(0,0,0)" />
<line x1="235.63" y1="550" x2="235.63" y2="554" stroke="rgb(0,0,0)" />
<line x1="248.425" y1="550" x2="248.425" y2="554" stroke="rgb(0,0,0)" />
<line x1="261.22" y1="550" x2="261.22" y2="554" stroke="rgb(0,0,0)" />
<line x1="274.016" y1="550" x2="274.016" y2="554" stroke="rgb(0,0,0)" />
<text x="286" y="578" fill="rgb(0,0,0)">
600</text>
<line x1="286.811" y1="550" x2="286.811" y2="558" stroke="rgb(0,0,0)" />
<line x1="299.606" y1="550" x2="299.606" y2="554" stroke="rgb(0,0,0)" />
<line x1="312.402" y1="550" x2="312.402" y2="554" stroke="rgb(0,0,0)" />
<line x1="325.197" y1="550" x2="325.197" y2="554" stroke="rgb(0,0,0)" />
<line x1="337.992" y1="550" x2="337.992" y2="554" stroke="rgb(0,0,0)" />
<text x="350" y="578" fill="rgb(0,0,0)">
800</text>
<line x1="350.787" y1="550" x2="350.787" y2="558" stroke="rgb(0,0,0)" />
<line x1="363.583" y1="550" x2="363.583" y2="554" stroke="rgb(0,0,0)" />
<line x1="376.378" y1="550" x2="376.378" y2="554" stroke="rgb(0,0,0)" />
<line x1="389.173" y1="550" x2="389.173" y2="554" stroke="rgb(0,0,0)" />
<line x1="401.969" y1="550" x2="401.969" y2="554" stroke="rgb(0,0,0)" />
<text x="414" y="578" fill="rgb(0,0,0)">
1000</text>
<line x1="414.764" y1="550" x2="414.764" y2="558" stroke="rgb(0,0,0)" />
<line x1="427.559" y1="550" x2="427.559" y2="554" stroke="rgb(0,0,0)" />
<line x1="440.354" y1="550" x2="440.354" y2="554" stroke="rgb(0,0,0)" />
<line x1="453.15" y1="550" x2="453.15" y2="554" stroke="rgb(0,0,0)" />
<line x1="465.945" y1="550" x2="465.945" y2="554" stroke="rgb(0,0,0)" />
<text x="478" y="578" fill="rgb(0,0,0)">
1200</text>
<line x1="478.74" y1="550" x2="478.74" y2="558" stroke="rgb(0,0,0)" />
<line x1="491.535" y1="550" x2="491.535" y2="554" stroke="rgb(0,0,0)" />
<line x1="504.331" y1="550" x2="504.331" y2="554" stroke="rgb(0,0,0)" />
<line x1="517.126" y1="550" x2="517.126" y2="554" stroke="rgb(0,0,0)" />
<line x1="529.921" y1="550" x2="529.921" y2="554" stroke="rgb(0,0,0)" />
<text x="542" y="578" fill="rgb(0,0,0)">
1400</text>
<line x1="542.717" y1="550" x2="542.717" y2="558" stroke="rgb(0,0,0)" />
<line x1="555.512" y1="550" x2="555.512" y2="554" stroke="rgb(0,0,0)" />
<line x1="568.307" y1="550" x2="568.307" y2="554" stroke="rgb(0,0,0)" />
<line x1="581.102" y1="550" x2="581.102" y2="554" stroke="rgb(0,0,0)" />
<line x1="593.898" y1="550" x2="593.898" y2="554" stroke="rgb(0,0,0)" />
<text x="606" y="578" fill="rgb(0,0,0)">
1600</text>
<line x1="606.693" y1="550" x2="606.693" y2="558" stroke="rgb(0,0,0)" />
<line x1="619.488" y1="550" x2="619.488" y2="554" stroke="rgb(0,0,0)" />
<line x1="632.283" y1="550" x2="632.283" y2="554" stroke="rgb(0,0,0)" />
<line x1="645.079" y1="550" x2="645.079" y2="554" stroke="rgb(0,0,0)" />
<line x1="657.874" y1="550" x2="657.874" y2="554" stroke="rgb(0,0,0)" />
<text x="670" y="578" fill="rgb(0,0,0)">
1800</text>
<line x1="670.669" y1="550" x2="670.669" y2="558" stroke="rgb(0,0,0)" />
<line x1="683.465" y1="550" x2="683.465" y2="554" stroke="rgb(0,0,0)" />
<line x1="696.26" y1="550" x2="696.26" y2="554" stroke="rgb(0,0,0)" />
<line x1="709.055" y1="550" x2="709.055" y2="554" stroke="rgb(0,0,0)" />
<line x1="721.85" y1="550" x2="721.85" y2="554" stroke="rgb(0,0,0)" />
<text x="734" y="578" fill="rgb(0,0,0)">
2000</text>
<line x1="734.646" y1="550" x2="734.646" y2="558" stroke="rgb(0,0,0)" />
<line x1="747.441" y1="550" x2="747.441" y2="554" stroke="rgb(0,0,0)" />
<text x="409" y="594" fill="rgb(0,0,0)">
N</text>
<line x1="100" y1="50" x2="100" y2="550" stroke="rgb(0,0,0)" />
<text x="58" y="558" fill="rgb(0,0,0)">
0</text>
<line x1="100" y1="550" x2="92" y2="550" stroke="rgb(0,0,0)" />
<line x1="100" y1="544.542" x2="96" y2="544.542" stroke="rgb(0,0,0)" />
<line x1="100" y1="539.083" x2="96" y2="539.083" stroke="rgb(0,0,0)" />
<line x1="100" y1="533.624" x2="96" y2="533.624" stroke="rgb(0,0,0)" />
<line x1="100" y1="528.166" x2="96" y2="528.166" stroke="rgb(0,0,0)" />
<text x="46" y="530" fill="rgb(0,0,0)">
200</text>
<line x1="100" y1="522.707" x2="92" y2="522.707" stroke="rgb(0,0,0)" />
<line x1="100" y1="517.249" x2="96" y2="517.249" stroke="rgb(0,0,0)" />
<line x1="100" y1="511.79" x2="96" y2="511.79" stroke="rgb(0,0,0)" />
<line x1="100" y1="506.332" x2="96" y2="506.332" stroke="rgb(0,0,0)" />
<line x1="100" y1="500.873" x2="96" y2="500.873" stroke="rgb(0,0,0)" />
<text x="46" y="503" fill="rgb(0,0,0)">
400</text>
<line x1="100" y1="495.415" x2="92" y2="495.415" stroke="rgb(0,0,0)" />
<line x1="100" y1="489.956" x2="96" y2="489.956" stroke="rgb(0,0,0)" />
<line x1="100" y1="484.498" x2="96" y2="484.498" stroke="rgb(0,0,0)" />
<line x1="100" y1="479.039" x2="96" y2="479.039" stroke="rgb(0,0,0)" />
<line x1="100" y1="473.581" x2="96" y2="473.581" stroke="rgb(0,0,0)" />
<text x="46" y="476" fill="rgb(0,0,0)">
600</text>
<line x1="100" y1="468.122" x2="92" y2="468.122" stroke="rgb(0,0,0)" />
<line x1="100" y1="462.664" x2="96" y2="462.664" stroke="rgb(0,0,0)" />
<line x1="100" y1="457.205" x2="96" y2="457.205" stroke="rgb(0,0,0)" />
<line x1="100" y1="451.747" x2="96" y2="451.747" stroke="rgb(0,0,0)" />
<line x1="100" y1="446.288" x2="96" y2="446.288" stroke="rgb(0,0,0)" />
<text x="46" y="448" fill="rgb(0,0,0)">
800</text>
<line x1="100" y1="440.83" x2="92" y2="440.83" stroke="rgb(0,0,0)" />
<line x1="100" y1="435.371" x2="96" y2="435.371" stroke="rgb(0,0,0)" />
<line x1="100" y1="429.913" x2="96" y2="429.913" stroke="rgb(0,0,0)" />
<line x1="100" y1="424.454" x2="96" y2="424.454" stroke="rgb(0,0,0)" />
<line x1="100" y1="418.996" x2="96" y2="418.996" stroke="rgb(0,0,0)" />
<text x="42" y="421" fill="rgb(0,0,0)">
1000</text>
<line x1="100" y1="413.537" x2="92" y2="413.537" stroke="rgb(0,0,0)" />
<line x1="100" y1="408.079" x2="96" y2="408.079" stroke="rgb(0,0,0)" />
<line x1="100" y1="402.62" x2="96" y2="402.62" stroke="rgb(0,0,0)" />
<line x1="100" y1="397.162" x2="96" y2="397.162" stroke="rgb(0,0,0)" />
<line x1="100" y1="391.703" x2="96" y2="391.703" stroke="rgb(0,0,0)" />
<text x="42" y="394" fill="rgb(0,0,0)">
1200</text>
<line x1="100" y1="386.245" x2="92" y2="386.245" stroke="rgb(0,0,0)" />
<line x1="100" y1="380.786" x2="96" y2="380.786" stroke="rgb(0,0,0)" />
<line x1="100" y1="375.328" x2="96" y2="375.328" stroke="rgb(0,0,0)" />
<line x1="100" y1="369.869" x2="96" y2="369.869" stroke="rgb(0,0,0)" />
<line x1="100" y1="364.41" x2="96" y2="364.41" stroke="rgb(0,0,0)" />
<text x="42" y="366" fill="rgb(0,0,0)">
1400</text>
<line x1="100" y1="358.952" x2="92" y2="358.952" stroke="rgb(0,0,0)" />
<line x1="100" y1="353.493" x2="96" y2="353.493" stroke="rgb(0,0,0)" />
<line x1="100" y1="348.035" x2="96" y2="348.035" stroke="rgb(0,0,0)" />
<line x1="100" y1="342.576" x2="96" y2="342.576" stroke="rgb(0,0,0)" />
<line x1="100" y1="337.118" x2="96" y2="337.118" stroke="rgb(0,0,0)" />
<text x="42" y="339" fill="rgb(0,0,0)">
1600</text>
<line x1="100" y1="331.659" x2="92" y2="331.659" stroke="rgb(0,0,0)" />
<line x1="100" y1="326.201" x2="96" y2="326.201" stroke="rgb(0,0,0)" />
<line x1="100" y1="320.742" x2="96" y2="320.742" stroke="rgb(0,0,0)" />
<line x1="100" y1="315.284" x2="96" y2="315.284" stroke="rgb(0,0,0)" />
<line x1="100" y1="309.825" x2="96" y2="309.825" stroke="rgb(0,0,0)" />
<text x="42" y="312" fill="rgb(0,0,0)">
1800</text>
<line x1="100" y1="304.367" x2="92" y2="304.367" stroke="rgb(0,0,0)" />
<line x1="100" y1="298.908" x2="96" y2="298.908" stroke="rgb(0,0,0)" />
<line x1="100" y1="293.45" x2="96" y2="293.45" stroke="rgb(0,0,0)" />
<line x1="100" y1="287.991" x2="96" y2="287.991" stroke="rgb(0,0,0)" />
<line x1="100" y1="282.533" x2="96" y2="282.533" stroke="rgb(0,0,0)" />
<text x="40" y="285" fill="rgb(0,0,0)">
2000</text>
<line x1="100" y1="277.074" x2="92" y2="277.074" stroke="rgb(0,0,0)" />
<line x1="100" y1="271.616" x2="96" y2="271.616" stroke="rgb(0,0,0)" />
<line x1="100" y1="266.157" x2="96" y2="266.157" stroke="rgb(0,0,0)" />
<line x1="100" y1="260.699" x2="96" y2="260.699" stroke="rgb(0,0,0)" />
<line x1="100" y1="255.24" x2="96" y2="255.24" stroke="rgb(0,0,0)" />
<text x="40" y="257" fill="rgb(0,0,0)">
2200</text>
<line x1="100" y1="249.782" x2="92" y2="249.782" stroke="rgb(0,0,0)" />
<line x1="100" y1="244.323" x2="96" y2="244.323" stroke="rgb(0,0,0)" />
<line x1="100" y1="238.865" x2="96" y2="238.865" stroke="rgb(0,0,0)" />
<line x1="100" y1="233.406" x2="96" y2="233.406" stroke="rgb(0,0,0)" />
<line x1="100" y1="227.948" x2="96" y2="227.948" stroke="rgb(0,0,0)" />
<text x="40" y="230" fill="rgb(0,0,0)">
2400</text>
<line x1="100" y1="222.489" x2="92" y2="222.489" stroke="rgb(0,0,0)" />
<line x1="100" y1="217.031" x2="96" y2="217.031" stroke="rgb(0,0,0)" />
<line x1="100" y1="211.572" x2="96" y2="211.572" stroke="rgb(0,0,0)" />
<line x1="100" y1="206.114" x2="96" y2="206.114" stroke="rgb(0,0,0)" />
<line x1="100" y1="200.655" x2="96" y2="200.655" stroke="rgb(0,0,0)" />
<text x="40" y="203" fill="rgb(0,0,0)">
2600</text>
<line x1="100" y1="195.197" x2="92" y2="195.197" stroke="rgb(0,0,0)" />
<line x1="100" y1="189.738" x2="96" y2="189.738" stroke="rgb(0,0,0)" />
<line x1="100" y1="184.279" x2="96" y2="184.279" stroke="rgb(0,0,0)" />
<line x1="100" y1="178.821" x2="96" y2="178.821" stroke="rgb(0,0,0)" />
<line x1="100" y1="173.362" x2="96" y2="173.362" stroke="rgb(0,0,0)" />
<text x="40" y="175" fill="rgb(0,0,0)">
2800</text>
<line x1="100" y1="167.904" x2="92" y2="167.904" stroke="rgb(0,0,0)" />
<line x1="100" y1="162.445" x2="96" y2="162.445" stroke="rgb(0,0,0)" />
<line x1="100" y1="156.987" x2="96" y2="156.987" stroke="rgb(0,0,0)" />
<line x1="100" y1="151.528" x2="96" y2="151.528" stroke="rgb(0,0,0)" />
<line x1="100" y1="146.07" x2="96" y2="146.07" stroke="rgb(0,0,0)" />
<text x="40" y="148" fill="rgb(0,0,0)">
3000</text>
<line x1="100" y1="140.611" x2="92" y2="140.611" stroke="rgb(0,0,0)" />
<line x1="100" y1="135.153" x2="96" y2="135.153" stroke="rgb(0,0,0)" />
<line x1="100" y1="129.694" x2="96" y2="129.694" stroke="rgb(0,0,0)" />
<line x1="100" y1="124.236" x2="96" y2="124.236" stroke="rgb(0,0,0)" />
<line x1="100" y1="118.777" x2="96" y2="118.777" stroke="rgb(0,0,0)" />
<text x="40" y="121" fill="rgb(0,0,0)">
3200</text>
<line x1="100" y1="113.319" x2="92" y2="113.319" stroke="rgb(0,0,0)" />
<line x1="100" y1="107.86" x2="96" y2="107.86" stroke="rgb(0,0,0)" />
<line x1="100" y1="102.402" x2="96" y2="102.402" stroke="rgb(0,0,0)" />
<line x1="100" y1="96.9432" x2="96" y2="96.9432" stroke="rgb(0,0,0)" />
<line x1="100" y1="91.4847" x2="96" y2="91.4847" stroke="rgb(0,0,0)" />
<text x="40" y="94" fill="rgb(0,0,0)">
3400</text>
<line x1="100" y1="86.0262" x2="92" y2="86.0262" stroke="rgb(0,0,0)" />
<line x1="100" y1="80.5677" x2="96" y2="80.5677" stroke="rgb(0,0,0)" />
<line x1="100" y1="75.1092" x2="96" y2="75.1092" stroke="rgb(0,0,0)" />
<line x1="100" y1="69.6507" x2="96" y2="69.6507" stroke="rgb(0,0,0)" />
<line x1="100" y1="64.1921" x2="96" y2="64.1921" stroke="rgb(0,0,0)" />
<text x="40" y="66" fill="rgb(0,0,0)">
3600</text>
<line x1="100" y1="58.7336" x2="92" y2="58.7336" stroke="rgb(0,0,0)" />
<line x1="100" y1="53.2751" x2="96" y2="53.2751" stroke="rgb(0,0,0)" />
<text x="40" y="370" transform="rotate(-90,40,370)">Time (microseconds)</text>
<text x="120" y="66" fill="rgb(200,0,100)">
mergeSort</text>
<text x="120" y="98" fill="rgb(100,20,220)">
quickSort</text>
<text x="120" y="130" fill="rgb(50,220,10)">
insertionSort</text>
<text x="120" y="162" fill="rgb(200,209,140)">
hybridSort</text>
<text x="120" y="194" fill="rgb(20,100,100)">
std::sort</text>
<clipPath>
<rect x="100" y="50" width="650" height="500" fill="rgb(0,0,0)" />
</clipPath>
<line x1="100" y1="548.09" x2="105.118" y2="548.499" stroke="rgb(200,0,100)" />
<line x1="105.118" y1="548.499" x2="115.354" y2="546.588" stroke="rgb(200,0,100)" />
<line x1="115.354" y1="546.588" x2="135.827" y2="543.859" stroke="rgb(200,0,100)" />
<line x1="135.827" y1="543.859" x2="176.772" y2="539.902" stroke="rgb(200,0,100)" />
<line x1="176.772" y1="539.902" x2="258.661" y2="530.759" stroke="rgb(200,0,100)" />
<line x1="258.661" y1="530.759" x2="422.441" y2="508.379" stroke="rgb(200,0,100)" />
<line x1="422.441" y1="508.379" x2="750" y2="455.841" stroke="rgb(200,0,100)" />
<line x1="100" y1="550" x2="105.118" y2="550" stroke="rgb(100,20,220)" />
<line x1="105.118" y1="550" x2="115.354" y2="550" stroke="rgb(100,20,220)" />
<line x1="115.354" y1="550" x2="135.827" y2="550" stroke="rgb(100,20,220)" />
<line x1="135.827" y1="550" x2="176.772" y2="549.864" stroke="rgb(100,20,220)" />
<line x1="176.772" y1="549.864" x2="258.661" y2="550" stroke="rgb(100,20,220)" />
<line x1="258.661" y1="550" x2="422.441" y2="550" stroke="rgb(100,20,220)" />
<line x1="422.441" y1="550" x2="750" y2="547.817" stroke="rgb(100,20,220)" />
<line x1="100" y1="549.864" x2="105.118" y2="549.727" stroke="rgb(50,220,10)" />
<line x1="105.118" y1="549.727" x2="115.354" y2="548.908" stroke="rgb(50,220,10)" />
<line x1="115.354" y1="548.908" x2="135.827" y2="546.998" stroke="rgb(50,220,10)" />
<line x1="135.827" y1="546.998" x2="176.772" y2="543.586" stroke="rgb(50,220,10)" />
<line x1="176.772" y1="543.586" x2="258.661" y2="531.578" stroke="rgb(50,220,10)" />
<line x1="258.661" y1="531.578" x2="422.441" y2="474.672" stroke="rgb(50,220,10)" />
<line x1="422.441" y1="474.672" x2="750" y2="50" stroke="rgb(50,220,10)" />
<line x1="100" y1="549.864" x2="105.118" y2="550" stroke="rgb(200,209,140)" />
<line x1="105.118" y1="550" x2="115.354" y2="550" stroke="rgb(200,209,140)" />
<line x1="115.354" y1="550" x2="135.827" y2="550" stroke="rgb(200,209,140)" />
<line x1="135.827" y1="550" x2="176.772" y2="550" stroke="rgb(200,209,140)" />
<line x1="176.772" y1="550" x2="258.661" y2="550" stroke="rgb(200,209,140)" />
<line x1="258.661" y1="550" x2="422.441" y2="550" stroke="rgb(200,209,140)" />
<line x1="422.441" y1="550" x2="750" y2="549.864" stroke="rgb(200,209,140)" />
<line x1="100" y1="549.454" x2="105.118" y2="549.181" stroke="rgb(20,100,100)" />
<line x1="105.118" y1="549.181" x2="115.354" y2="547.544" stroke="rgb(20,100,100)" />
<line x1="115.354" y1="547.544" x2="135.827" y2="545.633" stroke="rgb(20,100,100)" />
<line x1="135.827" y1="545.633" x2="176.772" y2="541.812" stroke="rgb(20,100,100)" />
<line x1="176.772" y1="541.812" x2="258.661" y2="532.533" stroke="rgb(20,100,100)" />
<line x1="258.661" y1="532.533" x2="422.441" y2="512.473" stroke="rgb(20,100,100)" />
<line x1="422.441" y1="512.473" x2="750" y2="469.896" stroke="rgb(20,100,100)" />
</svg>

