<?xml version="1.0" encoding="utf-8"?>
<svg version="1.1" baseProfile="full" width="800" height="600" xmlns="http://www.w3.org/2000/svg">
<clipPath>
<rect x="0" y="0" width="800" height="600" fill="rgb(0,0,0)" />
</clipPath>
<text x="279" y="34" fill="rgb(0,0,0)">
Number of Elements Sorted Versus Time</text>
<line x1="158.858" y1="50" x2="158.858" y2="550" stroke="rgb(200,200,200)" />
<line x1="222.835" y1="50" x2="222.835" y2="550" stroke="rgb(200,200,200)" />
<line x1="286.811" y1="50" x2="286.811" y2="550" stroke="rgb(200,200,200)" />
<line x1="350.787" y1="50" x2="350.787" y2="550" stroke="rgb(200,200,200)" />
<line x1="414.764" y1="50" x2="414.764" y2="550" stroke="rgb(200,200,200)" />
<line x1="478.74" y1="50" x2="478.74" y2="550" stroke="rgb(200,200,200)" />
<line x1="542.717" y1="50" x2="542.717" y2="550" stroke="rgb(200,200,200)" />
<line x1="606.693" y1="50" x2="606.693" y2="550" stroke="rgb(200,200,200)" />
<line x1="670.669" y1="50" x2="670.669" y2="550" stroke="rgb(200,200,200)" />
<line x1="734.646" y1="50" x2="734.646" y2="550" stroke="rgb(200,200,200)" />
<line x1="100" y1="550" x2="750" y2="550" stroke="rgb(200,200,200)" />
<line x1="100" y1="494.103" x2="750" y2="494.103" stroke="rgb(200,200,200)" />
<line x1="100" y1="438.206" x2="750" y2="438.206" stroke="rgb(200,200,200)" />
<line x1="100" y1="382.309" x2="750" y2="382.309" stroke="rgb(200,200,200)" />
<line x1="100" y1="326.411" x2="750" y2="326.411" stroke="rgb(200,200,200)" />
<line x1="100" y1="270.514" x2="750" y2="270.514" stroke="rgb(200,200,200)" />
<line x1="100" y1="214.617" x2="750" y2="214.617" stroke="rgb(200,200,200)" />
<line x1="100" y1="158.72" x2="750" y2="158.72" stroke="rgb(200,200,200)" />
<line x1="100" y1="102.823" x2="750" y2="102.823" stroke="rgb(200,200,200)" />
<line x1="100" y1="550" x2="750" y2="550" stroke="rgb(0,0,0)" />
<line x1="107.677" y1="550" x2="107.677" y2="554" stroke="rgb(0,0,0)" />
<line x1="120.472" y1="550" x2="120.472" y2="554" stroke="rgb(0,0,0)" />
<line x1="133.268" y1="550" x2="133.268" y2="554" stroke="rgb(0,0,0)" />
<line x1="146.063" y1="550" x2="146.063" y2="554" stroke="rgb(0,0,0)" />
<text x="158" y="578" fill="rgb(0,0,0)">
200</text>
<line x1="158.858" y1="550" x2="158.858" y2="558" stroke="rgb(0,0,0)" />
<line x1="171.654" y1="550" x2="171.654" y2="554" stroke="rgb(0,0,0)" />
<line x1="184.449" y1="550" x2="184.449" y2="554" stroke="rgb(0,0,0)" />
<line x1="197.244" y1="550" x2="197.244" y2="554" stroke="rgb(0,0,0)" />
<line x1="210.039" y1="550" x2="210.039" y2="554" stroke="rgb(0,0,0)" />
<text x="222" y="578" fill="rgb(0,0,0)">
400</text>
<line x1="222.835" y1="550" x2="222.835" y2="558" stroke="rgb(0,0,0)" />
<line x1="235.63" y1="550" x2="235.63" y2="554" stroke="rgb(0,0,0)" />
<line x1="248.425" y1="550" x2="248.425" y2="554" stroke="rgb(0,0,0)" />
<line x1="261.22" y1="550" x2="261.22" y2="554" stroke="rgb(0,0,0)" />
<line x1="274.016" y1="550" x2="274.016" y2="554" stroke="rgb(0,0,0)" />
<text x="286" y="578" fill="rgb(0,0,0)">
600</text>
<line x1="286.811" y1="550" x2="286.811" y2="558" stroke="rgb(0,0,0)" />
<line x1="299.606" y1="550" x2="299.606" y2="554" stroke="rgb(0,0,0)" />
<line x1="312.402" y1="550" x2="312.402" y2="554" stroke="rgb(0,0,0)" />
<line x1="325.197" y1="550" x2="325.197" y2="554" stroke="rgb(0,0,0)" />
<line x1="337.992" y1="550" x2="337.992" y2="554" stroke="rgb(0,0,0)" />
<text x="350" y="578" fill="rgb(0,0,0)">
800</text>
<line x1="350.787" y1="550" x2="350.787" y2="558" stroke="rgb(0,0,0)" />
<line x1="363.583" y1="550" x2="363.583" y2="554" stroke="rgb(0,0,0)" />
<line x1="376.378" y1="550" x2="376.378" y2="554" stroke="rgb(0,0,0)" />
<line x1="389.173" y1="550" x2="389.173" y2="554" stroke="rgb(0,0,0)" />
<line x1="401.969" y1="550" x2="401.969" y2="554" stroke="rgb(0,0,0)" />
<text x="414" y="578" fill="rgb(0,0,0)">
1000</text>
<line x1="414.764" y1="550" x2="414.764" y2="558" stroke="rgb(0,0,0)" />
<line x1="427.559" y1="550" x2="427.559" y2="554" stroke="rgb(0,0,0)" />
<line x1="440.354" y1="550" x2="440.354" y2="554" stroke="rgb(0,0,0)" />
<line x1="453.15" y1="550" x2="453.15" y2="554" stroke="rgb(0,0,0)" />
<line x1="465.945" y1="550" x2="465.945" y2="554" stroke="rgb(0,0,0)" />
<text x="478" y="578" fill="rgb(0,0,0)">
1200</text>
<line x1="478.74" y1="550" x2="478.74" y2="558" stroke="rgb(0,0,0)" />
<line x1="491.535" y1="550" x2="491.535" y2="554" stroke="rgb(0,0,0)" />
<line x1="504.331" y1="550" x2="504.331" y2="554" stroke="rgb(0,0,0)" />
<line x1="517.126" y1="550" x2="517.126" y2="554" stroke="rgb(0,0,0)" />
<line x1="529.921" y1="550" x2="529.921" y2="554" stroke="rgb(0,0,0)" />
<text x="542" y="578" fill="rgb(0,0,0)">
1400</text>
<line x1="542.717" y1="550" x2="542.717" y2="558" stroke="rgb(0,0,0)" />
<line x1="555.512" y1="550" x2="555.512" y2="554" stroke="rgb(0,0,0)" />
<line x1="568.307" y1="550" x2="568.307" y2="554" stroke="rgb(0,0,0)" />
<line x1="581.102" y1="550" x2="581.102" y2="554" stroke="rgb(0,0,0)" />
<line x1="593.898" y1="550" x2="593.898" y2="554" stroke="rgb(0,0,0)" />
<text x="606" y="578" fill="rgb(0,0,0)">
1600</text>
<line x1="606.693" y1="550" x2="606.693" y2="558" stroke="rgb(0,0,0)" />
<line x1="619.488" y1="550" x2="619.488" y2="554" stroke="rgb(0,0,0)" />
<line x1="632.283" y1="550" x2="632.283" y2="554" stroke="rgb(0,0,0)" />
<line x1="645.079" y1="550" x2="645.079" y2="554" stroke="rgb(0,0,0)" />
<line x1="657.874" y1="550" x2="657.874" y2="554" stroke="rgb(0,0,0)" />
<text x="670" y="578" fill="rgb(0,0,0)">
1800</text>
<line x1="670.669" y1="550" x2="670.669" y2="558" stroke="rgb(0,0,0)" />
<line x1="683.465" y1="550" x2="683.465" y2="554" stroke="rgb(0,0,0)" />
<line x1="696.26" y1="550" x2="696.26" y2="554" stroke="rgb(0,0,0)" />
<line x1="709.055" y1="550" x2="709.055" y2="554" stroke="rgb(0,0,0)" />
<line x1="721.85" y1="550" x2="721.85" y2="554" stroke="rgb(0,0,0)" />
<text x="734" y="578" fill="rgb(0,0,0)">
2000</text>
<line x1="734.646" y1="550" x2="734.646" y2="558" stroke="rgb(0,0,0)" />
<line x1="747.441" y1="550" x2="747.441" y2="554" stroke="rgb(0,0,0)" />
<text x="409" y="594" fill="rgb(0,0,0)">
N</text>
<line x1="100" y1="50" x2="100" y2="550" stroke="rgb(0,0,0)" />
<text x="58" y="558" fill="rgb(0,0,0)">
0</text>
<line x1="100" y1="550" x2="92" y2="550" stroke="rgb(0,0,0)" />
<line x1="100" y1="538.821" x2="96" y2="538.821" stroke="rgb(0,0,0)" />
<line x1="100" y1="527.641" x2="96" y2="527.641" stroke="rgb(0,0,0)" />
<line x1="100" y1="516.462" x2="96" y2="516.462" stroke="rgb(0,0,0)" />
<line x1="100" y1="505.282" x2="96" y2="505.282" stroke="rgb(0,0,0)" />
<text x="46" y="502" fill="rgb(0,0,0)">
200</text>
<line x1="100" y1="494.103" x2="92" y2="494.103" stroke="rgb(0,0,0)" />
<line x1="100" y1="482.923" x2="96" y2="482.923" stroke="rgb(0,0,0)" />
<line x1="100" y1="471.744" x2="96" y2="471.744" stroke="rgb(0,0,0)" />
<line x1="100" y1="460.565" x2="96" y2="460.565" stroke="rgb(0,0,0)" />
<line x1="100" y1="449.385" x2="96" y2="449.385" stroke="rgb(0,0,0)" />
<text x="46" y="446" fill="rgb(0,0,0)">
400</text>
<line x1="100" y1="438.206" x2="92" y2="438.206" stroke="rgb(0,0,0)" />
<line x1="100" y1="427.026" x2="96" y2="427.026" stroke="rgb(0,0,0)" />
<line x1="100" y1="415.847" x2="96" y2="415.847" stroke="rgb(0,0,0)" />
<line x1="100" y1="404.667" x2="96" y2="404.667" stroke="rgb(0,0,0)" />
<line x1="100" y1="393.488" x2="96" y2="393.488" stroke="rgb(0,0,0)" />
<text x="46" y="390" fill="rgb(0,0,0)">
600</text>
<line x1="100" y1="382.309" x2="92" y2="382.309" stroke="rgb(0,0,0)" />
<line x1="100" y1="371.129" x2="96" y2="371.129" stroke="rgb(0,0,0)" />
<line x1="100" y1="359.95" x2="96" y2="359.95" stroke="rgb(0,0,0)" />
<line x1="100" y1="348.77" x2="96" y2="348.77" stroke="rgb(0,0,0)" />
<line x1="100" y1="337.591" x2="96" y2="337.591" stroke="rgb(0,0,0)" />
<text x="46" y="334" fill="rgb(0,0,0)">
800</text>
<line x1="100" y1="326.411" x2="92" y2="326.411" stroke="rgb(0,0,0)" />
<line x1="100" y1="315.232" x2="96" y2="315.232" stroke="rgb(0,0,0)" />
<line x1="100" y1="304.053" x2="96" y2="304.053" stroke="rgb(0,0,0)" />
<line x1="100" y1="292.873" x2="96" y2="292.873" stroke="rgb(0,0,0)" />
<line x1="100" y1="281.694" x2="96" y2="281.694" stroke="rgb(0,0,0)" />
<text x="42" y="278" fill="rgb(0,0,0)">
1000</text>
<line x1="100" y1="270.514" x2="92" y2="270.514" stroke="rgb(0,0,0)" />
<line x1="100" y1="259.335" x2="96" y2="259.335" stroke="rgb(0,0,0)" />
<line x1="100" y1="248.155" x2="96" y2="248.155" stroke="rgb(0,0,0)" />
<line x1="100" y1="236.976" x2="96" y2="236.976" stroke="rgb(0,0,0)" />
<line x1="100" y1="225.797" x2="96" y2="225.797" stroke="rgb(0,0,0)" />
<text x="42" y="222" fill="rgb(0,0,0)">
1200</text>
<line x1="100" y1="214.617" x2="92" y2="214.617" stroke="rgb(0,0,0)" />
<line x1="100" y1="203.438" x2="96" y2="203.438" stroke="rgb(0,0,0)" />
<line x1="100" y1="192.258" x2="96" y2="192.258" stroke="rgb(0,0,0)" />
<line x1="100" y1="181.079" x2="96" y2="181.079" stroke="rgb(0,0,0)" />
<line x1="100" y1="169.899" x2="96" y2="169.899" stroke="rgb(0,0,0)" />
<text x="42" y="166" fill="rgb(0,0,0)">
1400</text>
<line x1="100" y1="158.72" x2="92" y2="158.72" stroke="rgb(0,0,0)" />
<line x1="100" y1="147.541" x2="96" y2="147.541" stroke="rgb(0,0,0)" />
<line x1="100" y1="136.361" x2="96" y2="136.361" stroke="rgb(0,0,0)" />
<line x1="100" y1="125.182" x2="96" y2="125.182" stroke="rgb(0,0,0)" />
<line x1="100" y1="114.002" x2="96" y2="114.002" stroke="rgb(0,0,0)" />
<text x="42" y="110" fill="rgb(0,0,0)">
1600</text>
<line x1="100" y1="102.823" x2="92" y2="102.823" stroke="rgb(0,0,0)" />
<line x1="100" y1="91.6434" x2="96" y2="91.6434" stroke="rgb(0,0,0)" />
<line x1="100" y1="80.464" x2="96" y2="80.464" stroke="rgb(0,0,0)" />
<line x1="100" y1="69.2845" x2="96" y2="69.2845" stroke="rgb(0,0,0)" />
<line x1="100" y1="58.1051" x2="96" y2="58.1051" stroke="rgb(0,0,0)" />
<text x="42" y="370" transform="rotate(-90,42,370)">Time (microseconds)</text>
<text x="120" y="66" fill="rgb(200,0,100)">
mergeSort</text>
<text x="120" y="98" fill="rgb(100,20,220)">
quickSort</text>
<text x="120" y="130" fill="rgb(50,220,10)">
insertionSort</text>
<text x="120" y="162" fill="rgb(200,209,140)">
hybridSort</text>
<text x="120" y="194" fill="rgb(20,100,100)">
std::sort</text>
<clipPath>
<rect x="100" y="50" width="650" height="500" fill="rgb(0,0,0)" />
</clipPath>
<line x1="100" y1="548.882" x2="105.118" y2="548.603" stroke="rgb(200,0,100)" />
<line x1="105.118" y1="548.603" x2="115.354" y2="547.205" stroke="rgb(200,0,100)" />
<line x1="115.354" y1="547.205" x2="135.827" y2="543.851" stroke="rgb(200,0,100)" />
<line x1="135.827" y1="543.851" x2="176.772" y2="537.703" stroke="rgb(200,0,100)" />
<line x1="176.772" y1="537.703" x2="258.661" y2="524.287" stroke="rgb(200,0,100)" />
<line x1="258.661" y1="524.287" x2="422.441" y2="481.247" stroke="rgb(200,0,100)" />
<line x1="422.441" y1="481.247" x2="750" y2="436.249" stroke="rgb(200,0,100)" />
<line x1="100" y1="549.162" x2="105.118" y2="548.882" stroke="rgb(100,20,220)" />
<line x1="105.118" y1="548.882" x2="115.354" y2="547.764" stroke="rgb(100,20,220)" />
<line x1="115.354" y1="547.764" x2="135.827" y2="545.249" stroke="rgb(100,20,220)" />
<line x1="135.827" y1="545.249" x2="176.772" y2="539.939" stroke="rgb(100,20,220)" />
<line x1="176.772" y1="539.939" x2="258.661" y2="530.156" stroke="rgb(100,20,220)" />
<line x1="258.661" y1="530.156" x2="422.441" y2="504.723" stroke="rgb(100,20,220)" />
<line x1="422.441" y1="504.723" x2="750" y2="461.962" stroke="rgb(100,20,220)" />
<line x1="100" y1="550" x2="105.118" y2="549.721" stroke="rgb(50,220,10)" />
<line x1="105.118" y1="549.721" x2="115.354" y2="549.162" stroke="rgb(50,220,10)" />
<line x1="115.354" y1="549.162" x2="135.827" y2="548.044" stroke="rgb(50,220,10)" />
<line x1="135.827" y1="548.044" x2="176.772" y2="543.572" stroke="rgb(50,220,10)" />
<line x1="176.772" y1="543.572" x2="258.661" y2="519.257" stroke="rgb(50,220,10)" />
<line x1="258.661" y1="519.257" x2="422.441" y2="449.944" stroke="rgb(50,220,10)" />
<line x1="422.441" y1="449.944" x2="750" y2="50" stroke="rgb(50,220,10)" />
<line x1="100" y1="549.162" x2="105.118" y2="548.603" stroke="rgb(200,209,140)" />
<line x1="105.118" y1="548.603" x2="115.354" y2="546.926" stroke="rgb(200,209,140)" />
<line x1="115.354" y1="546.926" x2="135.827" y2="544.41" stroke="rgb(200,209,140)" />
<line x1="135.827" y1="544.41" x2="176.772" y2="537.703" stroke="rgb(200,209,140)" />
<line x1="176.772" y1="537.703" x2="258.661" y2="522.051" stroke="rgb(200,209,140)" />
<line x1="258.661" y1="522.051" x2="422.441" y2="494.941" stroke="rgb(200,209,140)" />
<line x1="422.441" y1="494.941" x2="750" y2="435.411" stroke="rgb(200,209,140)" />
<line x1="100" y1="549.721" x2="105.118" y2="548.882" stroke="rgb(20,100,100)" />
<line x1="105.118" y1="548.882" x2="115.354" y2="547.764" stroke="rgb(20,100,100)" />
<line x1="115.354" y1="547.764" x2="135.827" y2="545.528" stroke="rgb(20,100,100)" />
<line x1="135.827" y1="545.528" x2="176.772" y2="539.659" stroke="rgb(20,100,100)" />
<line x1="176.772" y1="539.659" x2="258.661" y2="522.61" stroke="rgb(20,100,100)" />
<line x1="258.661" y1="522.61" x2="422.441" y2="494.941" stroke="rgb(20,100,100)" />
<line x1="422.441" y1="494.941" x2="750" y2="425.349" stroke="rgb(20,100,100)" />
</svg>

