<?xml version="1.0" encoding="utf-8"?>
<svg version="1.1" baseProfile="full" width="800" height="600" xmlns="http://www.w3.org/2000/svg">
<clipPath>
<rect x="0" y="0" width="800" height="600" fill="rgb(0,0,0)" />
</clipPath>
<text x="271" y="34" fill="rgb(0,0,0)">
Number of Elements Searched Versus Time</text>
<line x1="100" y1="50" x2="100" y2="550" stroke="rgb(200,200,200)" />
<line x1="192.857" y1="50" x2="192.857" y2="550" stroke="rgb(200,200,200)" />
<line x1="285.714" y1="50" x2="285.714" y2="550" stroke="rgb(200,200,200)" />
<line x1="378.571" y1="50" x2="378.571" y2="550" stroke="rgb(200,200,200)" />
<line x1="471.429" y1="50" x2="471.429" y2="550" stroke="rgb(200,200,200)" />
<line x1="564.286" y1="50" x2="564.286" y2="550" stroke="rgb(200,200,200)" />
<line x1="657.143" y1="50" x2="657.143" y2="550" stroke="rgb(200,200,200)" />
<line x1="750" y1="50" x2="750" y2="550" stroke="rgb(200,200,200)" />
<line x1="100" y1="550" x2="750" y2="550" stroke="rgb(200,200,200)" />
<line x1="100" y1="512.354" x2="750" y2="512.354" stroke="rgb(200,200,200)" />
<line x1="100" y1="474.707" x2="750" y2="474.707" stroke="rgb(200,200,200)" />
<line x1="100" y1="437.061" x2="750" y2="437.061" stroke="rgb(200,200,200)" />
<line x1="100" y1="399.415" x2="750" y2="399.415" stroke="rgb(200,200,200)" />
<line x1="100" y1="361.768" x2="750" y2="361.768" stroke="rgb(200,200,200)" />
<line x1="100" y1="324.122" x2="750" y2="324.122" stroke="rgb(200,200,200)" />
<line x1="100" y1="286.476" x2="750" y2="286.476" stroke="rgb(200,200,200)" />
<line x1="100" y1="248.829" x2="750" y2="248.829" stroke="rgb(200,200,200)" />
<line x1="100" y1="211.183" x2="750" y2="211.183" stroke="rgb(200,200,200)" />
<line x1="100" y1="173.536" x2="750" y2="173.536" stroke="rgb(200,200,200)" />
<line x1="100" y1="135.89" x2="750" y2="135.89" stroke="rgb(200,200,200)" />
<line x1="100" y1="98.2438" x2="750" y2="98.2438" stroke="rgb(200,200,200)" />
<line x1="100" y1="60.5974" x2="750" y2="60.5974" stroke="rgb(200,200,200)" />
<line x1="100" y1="550" x2="750" y2="550" stroke="rgb(0,0,0)" />
<text x="100" y="578" fill="rgb(0,0,0)">
1000</text>
<line x1="100" y1="550" x2="100" y2="558" stroke="rgb(0,0,0)" />
<line x1="118.571" y1="550" x2="118.571" y2="554" stroke="rgb(0,0,0)" />
<line x1="137.143" y1="550" x2="137.143" y2="554" stroke="rgb(0,0,0)" />
<line x1="155.714" y1="550" x2="155.714" y2="554" stroke="rgb(0,0,0)" />
<line x1="174.286" y1="550" x2="174.286" y2="554" stroke="rgb(0,0,0)" />
<text x="192" y="578" fill="rgb(0,0,0)">
2000</text>
<line x1="192.857" y1="550" x2="192.857" y2="558" stroke="rgb(0,0,0)" />
<line x1="211.429" y1="550" x2="211.429" y2="554" stroke="rgb(0,0,0)" />
<line x1="230" y1="550" x2="230" y2="554" stroke="rgb(0,0,0)" />
<line x1="248.571" y1="550" x2="248.571" y2="554" stroke="rgb(0,0,0)" />
<line x1="267.143" y1="550" x2="267.143" y2="554" stroke="rgb(0,0,0)" />
<text x="285" y="578" fill="rgb(0,0,0)">
3000</text>
<line x1="285.714" y1="550" x2="285.714" y2="558" stroke="rgb(0,0,0)" />
<line x1="304.286" y1="550" x2="304.286" y2="554" stroke="rgb(0,0,0)" />
<line x1="322.857" y1="550" x2="322.857" y2="554" stroke="rgb(0,0,0)" />
<line x1="341.429" y1="550" x2="341.429" y2="554" stroke="rgb(0,0,0)" />
<line x1="360" y1="550" x2="360" y2="554" stroke="rgb(0,0,0)" />
<text x="378" y="578" fill="rgb(0,0,0)">
4000</text>
<line x1="378.571" y1="550" x2="378.571" y2="558" stroke="rgb(0,0,0)" />
<line x1="397.143" y1="550" x2="397.143" y2="554" stroke="rgb(0,0,0)" />
<line x1="415.714" y1="550" x2="415.714" y2="554" stroke="rgb(0,0,0)" />
<line x1="434.286" y1="550" x2="434.286" y2="554" stroke="rgb(0,0,0)" />
<line x1="452.857" y1="550" x2="452.857" y2="554" stroke="rgb(0,0,0)" />
<text x="471" y="578" fill="rgb(0,0,0)">
5000</text>
<line x1="471.429" y1="550" x2="471.429" y2="558" stroke="rgb(0,0,0)" />
<line x1="490" y1="550" x2="490" y2="554" stroke="rgb(0,0,0)" />
<line x1="508.571" y1="550" x2="508.571" y2="554" stroke="rgb(0,0,0)" />
<line x1="527.143" y1="550" x2="527.143" y2="554" stroke="rgb(0,0,0)" />
<line x1="545.714" y1="550" x2="545.714" y2="554" stroke="rgb(0,0,0)" />
<text x="564" y="578" fill="rgb(0,0,0)">
6000</text>
<line x1="564.286" y1="550" x2="564.286" y2="558" stroke="rgb(0,0,0)" />
<line x1="582.857" y1="550" x2="582.857" y2="554" stroke="rgb(0,0,0)" />
<line x1="601.429" y1="550" x2="601.429" y2="554" stroke="rgb(0,0,0)" />
<line x1="620" y1="550" x2="620" y2="554" stroke="rgb(0,0,0)" />
<line x1="638.571" y1="550" x2="638.571" y2="554" stroke="rgb(0,0,0)" />
<text x="657" y="578" fill="rgb(0,0,0)">
7000</text>
<line x1="657.143" y1="550" x2="657.143" y2="558" stroke="rgb(0,0,0)" />
<line x1="675.714" y1="550" x2="675.714" y2="554" stroke="rgb(0,0,0)" />
<line x1="694.286" y1="550" x2="694.286" y2="554" stroke="rgb(0,0,0)" />
<line x1="712.857" y1="550" x2="712.857" y2="554" stroke="rgb(0,0,0)" />
<line x1="731.429" y1="550" x2="731.429" y2="554" stroke="rgb(0,0,0)" />
<text x="750" y="578" fill="rgb(0,0,0)">
8000</text>
<line x1="750" y1="550" x2="750" y2="558" stroke="rgb(0,0,0)" />
<text x="409" y="594" fill="rgb(0,0,0)">
N</text>
<line x1="100" y1="50" x2="100" y2="550" stroke="rgb(0,0,0)" />
<text x="58" y="558" fill="rgb(0,0,0)">
0</text>
<line x1="100" y1="550" x2="92" y2="550" stroke="rgb(0,0,0)" />
<line x1="100" y1="542.471" x2="96" y2="542.471" stroke="rgb(0,0,0)" />
<line x1="100" y1="534.941" x2="96" y2="534.941" stroke="rgb(0,0,0)" />
<line x1="100" y1="527.412" x2="96" y2="527.412" stroke="rgb(0,0,0)" />
<line x1="100" y1="519.883" x2="96" y2="519.883" stroke="rgb(0,0,0)" />
<text x="40" y="520" fill="rgb(0,0,0)">
2000</text>
<line x1="100" y1="512.354" x2="92" y2="512.354" stroke="rgb(0,0,0)" />
<line x1="100" y1="504.824" x2="96" y2="504.824" stroke="rgb(0,0,0)" />
<line x1="100" y1="497.295" x2="96" y2="497.295" stroke="rgb(0,0,0)" />
<line x1="100" y1="489.766" x2="96" y2="489.766" stroke="rgb(0,0,0)" />
<line x1="100" y1="482.237" x2="96" y2="482.237" stroke="rgb(0,0,0)" />
<text x="40" y="482" fill="rgb(0,0,0)">
4000</text>
<line x1="100" y1="474.707" x2="92" y2="474.707" stroke="rgb(0,0,0)" />
<line x1="100" y1="467.178" x2="96" y2="467.178" stroke="rgb(0,0,0)" />
<line x1="100" y1="459.649" x2="96" y2="459.649" stroke="rgb(0,0,0)" />
<line x1="100" y1="452.12" x2="96" y2="452.12" stroke="rgb(0,0,0)" />
<line x1="100" y1="444.59" x2="96" y2="444.59" stroke="rgb(0,0,0)" />
<text x="40" y="445" fill="rgb(0,0,0)">
6000</text>
<line x1="100" y1="437.061" x2="92" y2="437.061" stroke="rgb(0,0,0)" />
<line x1="100" y1="429.532" x2="96" y2="429.532" stroke="rgb(0,0,0)" />
<line x1="100" y1="422.002" x2="96" y2="422.002" stroke="rgb(0,0,0)" />
<line x1="100" y1="414.473" x2="96" y2="414.473" stroke="rgb(0,0,0)" />
<line x1="100" y1="406.944" x2="96" y2="406.944" stroke="rgb(0,0,0)" />
<text x="40" y="407" fill="rgb(0,0,0)">
8000</text>
<line x1="100" y1="399.415" x2="92" y2="399.415" stroke="rgb(0,0,0)" />
<line x1="100" y1="391.885" x2="96" y2="391.885" stroke="rgb(0,0,0)" />
<line x1="100" y1="384.356" x2="96" y2="384.356" stroke="rgb(0,0,0)" />
<line x1="100" y1="376.827" x2="96" y2="376.827" stroke="rgb(0,0,0)" />
<line x1="100" y1="369.298" x2="96" y2="369.298" stroke="rgb(0,0,0)" />
<text x="36" y="369" fill="rgb(0,0,0)">
10000</text>
<line x1="100" y1="361.768" x2="92" y2="361.768" stroke="rgb(0,0,0)" />
<line x1="100" y1="354.239" x2="96" y2="354.239" stroke="rgb(0,0,0)" />
<line x1="100" y1="346.71" x2="96" y2="346.71" stroke="rgb(0,0,0)" />
<line x1="100" y1="339.18" x2="96" y2="339.18" stroke="rgb(0,0,0)" />
<line x1="100" y1="331.651" x2="96" y2="331.651" stroke="rgb(0,0,0)" />
<text x="36" y="332" fill="rgb(0,0,0)">
12000</text>
<line x1="100" y1="324.122" x2="92" y2="324.122" stroke="rgb(0,0,0)" />
<line x1="100" y1="316.593" x2="96" y2="316.593" stroke="rgb(0,0,0)" />
<line x1="100" y1="309.063" x2="96" y2="309.063" stroke="rgb(0,0,0)" />
<line x1="100" y1="301.534" x2="96" y2="301.534" stroke="rgb(0,0,0)" />
<line x1="100" y1="294.005" x2="96" y2="294.005" stroke="rgb(0,0,0)" />
<text x="36" y="294" fill="rgb(0,0,0)">
14000</text>
<line x1="100" y1="286.476" x2="92" y2="286.476" stroke="rgb(0,0,0)" />
<line x1="100" y1="278.946" x2="96" y2="278.946" stroke="rgb(0,0,0)" />
<line x1="100" y1="271.417" x2="96" y2="271.417" stroke="rgb(0,0,0)" />
<line x1="100" y1="263.888" x2="96" y2="263.888" stroke="rgb(0,0,0)" />
<line x1="100" y1="256.358" x2="96" y2="256.358" stroke="rgb(0,0,0)" />
<text x="36" y="256" fill="rgb(0,0,0)">
16000</text>
<line x1="100" y1="248.829" x2="92" y2="248.829" stroke="rgb(0,0,0)" />
<line x1="100" y1="241.3" x2="96" y2="241.3" stroke="rgb(0,0,0)" />
<line x1="100" y1="233.771" x2="96" y2="233.771" stroke="rgb(0,0,0)" />
<line x1="100" y1="226.241" x2="96" y2="226.241" stroke="rgb(0,0,0)" />
<line x1="100" y1="218.712" x2="96" y2="218.712" stroke="rgb(0,0,0)" />
<text x="36" y="219" fill="rgb(0,0,0)">
18000</text>
<line x1="100" y1="211.183" x2="92" y2="211.183" stroke="rgb(0,0,0)" />
<line x1="100" y1="203.654" x2="96" y2="203.654" stroke="rgb(0,0,0)" />
<line x1="100" y1="196.124" x2="96" y2="196.124" stroke="rgb(0,0,0)" />
<line x1="100" y1="188.595" x2="96" y2="188.595" stroke="rgb(0,0,0)" />
<line x1="100" y1="181.066" x2="96" y2="181.066" stroke="rgb(0,0,0)" />
<text x="35" y="181" fill="rgb(0,0,0)">
20000</text>
<line x1="100" y1="173.536" x2="92" y2="173.536" stroke="rgb(0,0,0)" />
<line x1="100" y1="166.007" x2="96" y2="166.007" stroke="rgb(0,0,0)" />
<line x1="100" y1="158.478" x2="96" y2="158.478" stroke="rgb(0,0,0)" />
<line x1="100" y1="150.949" x2="96" y2="150.949" stroke="rgb(0,0,0)" />
<line x1="100" y1="143.419" x2="96" y2="143.419" stroke="rgb(0,0,0)" />
<text x="35" y="143" fill="rgb(0,0,0)">
22000</text>
<line x1="100" y1="135.89" x2="92" y2="135.89" stroke="rgb(0,0,0)" />
<line x1="100" y1="128.361" x2="96" y2="128.361" stroke="rgb(0,0,0)" />
<line x1="100" y1="120.832" x2="96" y2="120.832" stroke="rgb(0,0,0)" />
<line x1="100" y1="113.302" x2="96" y2="113.302" stroke="rgb(0,0,0)" />
<line x1="100" y1="105.773" x2="96" y2="105.773" stroke="rgb(0,0,0)" />
<text x="35" y="106" fill="rgb(0,0,0)">
24000</text>
<line x1="100" y1="98.2438" x2="92" y2="98.2438" stroke="rgb(0,0,0)" />
<line x1="100" y1="90.7145" x2="96" y2="90.7145" stroke="rgb(0,0,0)" />
<line x1="100" y1="83.1853" x2="96" y2="83.1853" stroke="rgb(0,0,0)" />
<line x1="100" y1="75.656" x2="96" y2="75.656" stroke="rgb(0,0,0)" />
<line x1="100" y1="68.1267" x2="96" y2="68.1267" stroke="rgb(0,0,0)" />
<text x="35" y="68" fill="rgb(0,0,0)">
26000</text>
<line x1="100" y1="60.5974" x2="92" y2="60.5974" stroke="rgb(0,0,0)" />
<line x1="100" y1="53.0682" x2="96" y2="53.0682" stroke="rgb(0,0,0)" />
<text x="35" y="367" transform="rotate(-90,35,367)">Time (nanoseconds)</text>
<text x="120" y="66" fill="rgb(200,0,100)">
Linked List</text>
<text x="120" y="98" fill="rgb(100,20,220)">
Dynamic Array</text>
<clipPath>
<rect x="100" y="50" width="650" height="500" fill="rgb(0,0,0)" />
</clipPath>
<line x1="100" y1="500.006" x2="192.857" y2="452.421" stroke="rgb(200,0,100)" />
<line x1="192.857" y1="452.421" x2="378.571" y2="351.246" stroke="rgb(200,0,100)" />
<line x1="378.571" y1="351.246" x2="750" y2="50" stroke="rgb(200,0,100)" />
<line x1="100" y1="511.676" x2="192.857" y2="470.227" stroke="rgb(100,20,220)" />
<line x1="192.857" y1="470.227" x2="378.571" y2="404.215" stroke="rgb(100,20,220)" />
<line x1="378.571" y1="404.215" x2="750" y2="266.052" stroke="rgb(100,20,220)" />
</svg>

