<?xml version="1.0" encoding="utf-8"?>
<svg version="1.1" baseProfile="full" width="800" height="600" xmlns="http://www.w3.org/2000/svg">
<clipPath>
<rect x="0" y="0" width="800" height="600" fill="rgb(0,0,0)" />
</clipPath>
<text x="279" y="34" fill="rgb(0,0,0)">
Number of Elements Sorted Versus Time</text>
<line x1="158.858" y1="50" x2="158.858" y2="550" stroke="rgb(200,200,200)" />
<line x1="222.835" y1="50" x2="222.835" y2="550" stroke="rgb(200,200,200)" />
<line x1="286.811" y1="50" x2="286.811" y2="550" stroke="rgb(200,200,200)" />
<line x1="350.787" y1="50" x2="350.787" y2="550" stroke="rgb(200,200,200)" />
<line x1="414.764" y1="50" x2="414.764" y2="550" stroke="rgb(200,200,200)" />
<line x1="478.74" y1="50" x2="478.74" y2="550" stroke="rgb(200,200,200)" />
<line x1="542.717" y1="50" x2="542.717" y2="550" stroke="rgb(200,200,200)" />
<line x1="606.693" y1="50" x2="606.693" y2="550" stroke="rgb(200,200,200)" />
<line x1="670.669" y1="50" x2="670.669" y2="550" stroke="rgb(200,200,200)" />
<line x1="734.646" y1="50" x2="734.646" y2="550" stroke="rgb(200,200,200)" />
<line x1="100" y1="550" x2="750" y2="550" stroke="rgb(200,200,200)" />
<line x1="100" y1="523.023" x2="750" y2="523.023" stroke="rgb(200,200,200)" />
<line x1="100" y1="496.045" x2="750" y2="496.045" stroke="rgb(200,200,200)" />
<line x1="100" y1="469.068" x2="750" y2="469.068" stroke="rgb(200,200,200)" />
<line x1="100" y1="442.09" x2="750" y2="442.09" stroke="rgb(200,200,200)" />
<line x1="100" y1="415.113" x2="750" y2="415.113" stroke="rgb(200,200,200)" />
<line x1="100" y1="388.135" x2="750" y2="388.135" stroke="rgb(200,200,200)" />
<line x1="100" y1="361.158" x2="750" y2="361.158" stroke="rgb(200,200,200)" />
<line x1="100" y1="334.18" x2="750" y2="334.18" stroke="rgb(200,200,200)" />
<line x1="100" y1="307.203" x2="750" y2="307.203" stroke="rgb(200,200,200)" />
<line x1="100" y1="280.226" x2="750" y2="280.226" stroke="rgb(200,200,200)" />
<line x1="100" y1="253.248" x2="750" y2="253.248" stroke="rgb(200,200,200)" />
<line x1="100" y1="226.271" x2="750" y2="226.271" stroke="rgb(200,200,200)" />
<line x1="100" y1="199.293" x2="750" y2="199.293" stroke="rgb(200,200,200)" />
<line x1="100" y1="172.316" x2="750" y2="172.316" stroke="rgb(200,200,200)" />
<line x1="100" y1="145.338" x2="750" y2="145.338" stroke="rgb(200,200,200)" />
<line x1="100" y1="118.361" x2="750" y2="118.361" stroke="rgb(200,200,200)" />
<line x1="100" y1="91.3834" x2="750" y2="91.3834" stroke="rgb(200,200,200)" />
<line x1="100" y1="64.406" x2="750" y2="64.406" stroke="rgb(200,200,200)" />
<line x1="100" y1="550" x2="750" y2="550" stroke="rgb(0,0,0)" />
<line x1="107.677" y1="550" x2="107.677" y2="554" stroke="rgb(0,0,0)" />
<line x1="120.472" y1="550" x2="120.472" y2="554" stroke="rgb(0,0,0)" />
<line x1="133.268" y1="550" x2="133.268" y2="554" stroke="rgb(0,0,0)" />
<line x1="146.063" y1="550" x2="146.063" y2="554" stroke="rgb(0,0,0)" />
<text x="158" y="578" fill="rgb(0,0,0)">
200</text>
<line x1="158.858" y1="550" x2="158.858" y2="558" stroke="rgb(0,0,0)" />
<line x1="171.654" y1="550" x2="171.654" y2="554" stroke="rgb(0,0,0)" />
<line x1="184.449" y1="550" x2="184.449" y2="554" stroke="rgb(0,0,0)" />
<line x1="197.244" y1="550" x2="197.244" y2="554" stroke="rgb(0,0,0)" />
<line x1="210.039" y1="550" x2="210.039" y2="554" stroke="rgb(0,0,0)" />
<text x="222" y="578" fill="rgb(0,0,0)">
400</text>
<line x1="222.835" y1="550" x2="222.835" y2="558" stroke="rgb(0,0,0)" />
<line x1="235.63" y1="550" x2="235.63" y2="554" stroke="rgb(0,0,0)" />
<line x1="248.425" y1="550" x2="248.425" y2="554" stroke="rgb(0,0,0)" />
<line x1="261.22" y1="550" x2="261.22" y2="554" stroke="rgb(0,0,0)" />
<line x1="274.016" y1="550" x2="274.016" y2="554" stroke="rgb(0,0,0)" />
<text x="286" y="578" fill="rgb(0,0,0)">
600</text>
<line x1="286.811" y1="550" x2="286.811" y2="558" stroke="rgb(0,0,0)" />
<line x1="299.606" y1="550" x2="299.606" y2="554" stroke="rgb(0,0,0)" />
<line x1="312.402" y1="550" x2="312.402" y2="554" stroke="rgb(0,0,0)" />
<line x1="325.197" y1="550" x2="325.197" y2="554" stroke="rgb(0,0,0)" />
<line x1="337.992" y1="550" x2="337.992" y2="554" stroke="rgb(0,0,0)" />
<text x="350" y="578" fill="rgb(0,0,0)">
800</text>
<line x1="350.787" y1="550" x2="350.787" y2="558" stroke="rgb(0,0,0)" />
<line x1="363.583" y1="550" x2="363.583" y2="554" stroke="rgb(0,0,0)" />
<line x1="376.378" y1="550" x2="376.378" y2="554" stroke="rgb(0,0,0)" />
<line x1="389.173" y1="550" x2="389.173" y2="554" stroke="rgb(0,0,0)" />
<line x1="401.969" y1="550" x2="401.969" y2="554" stroke="rgb(0,0,0)" />
<text x="414" y="578" fill="rgb(0,0,0)">
1000</text>
<line x1="414.764" y1="550" x2="414.764" y2="558" stroke="rgb(0,0,0)" />
<line x1="427.559" y1="550" x2="427.559" y2="554" stroke="rgb(0,0,0)" />
<line x1="440.354" y1="550" x2="440.354" y2="554" stroke="rgb(0,0,0)" />
<line x1="453.15" y1="550" x2="453.15" y2="554" stroke="rgb(0,0,0)" />
<line x1="465.945" y1="550" x2="465.945" y2="554" stroke="rgb(0,0,0)" />
<text x="478" y="578" fill="rgb(0,0,0)">
1200</text>
<line x1="478.74" y1="550" x2="478.74" y2="558" stroke="rgb(0,0,0)" />
<line x1="491.535" y1="550" x2="491.535" y2="554" stroke="rgb(0,0,0)" />
<line x1="504.331" y1="550" x2="504.331" y2="554" stroke="rgb(0,0,0)" />
<line x1="517.126" y1="550" x2="517.126" y2="554" stroke="rgb(0,0,0)" />
<line x1="529.921" y1="550" x2="529.921" y2="554" stroke="rgb(0,0,0)" />
<text x="542" y="578" fill="rgb(0,0,0)">
1400</text>
<line x1="542.717" y1="550" x2="542.717" y2="558" stroke="rgb(0,0,0)" />
<line x1="555.512" y1="550" x2="555.512" y2="554" stroke="rgb(0,0,0)" />
<line x1="568.307" y1="550" x2="568.307" y2="554" stroke="rgb(0,0,0)" />
<line x1="581.102" y1="550" x2="581.102" y2="554" stroke="rgb(0,0,0)" />
<line x1="593.898" y1="550" x2="593.898" y2="554" stroke="rgb(0,0,0)" />
<text x="606" y="578" fill="rgb(0,0,0)">
1600</text>
<line x1="606.693" y1="550" x2="606.693" y2="558" stroke="rgb(0,0,0)" />
<line x1="619.488" y1="550" x2="619.488" y2="554" stroke="rgb(0,0,0)" />
<line x1="632.283" y1="550" x2="632.283" y2="554" stroke="rgb(0,0,0)" />
<line x1="645.079" y1="550" x2="645.079" y2="554" stroke="rgb(0,0,0)" />
<line x1="657.874" y1="550" x2="657.874" y2="554" stroke="rgb(0,0,0)" />
<text x="670" y="578" fill="rgb(0,0,0)">
1800</text>
<line x1="670.669" y1="550" x2="670.669" y2="558" stroke="rgb(0,0,0)" />
<line x1="683.465" y1="550" x2="683.465" y2="554" stroke="rgb(0,0,0)" />
<line x1="696.26" y1="550" x2="696.26" y2="554" stroke="rgb(0,0,0)" />
<line x1="709.055" y1="550" x2="709.055" y2="554" stroke="rgb(0,0,0)" />
<line x1="721.85" y1="550" x2="721.85" y2="554" stroke="rgb(0,0,0)" />
<text x="734" y="578" fill="rgb(0,0,0)">
2000</text>
<line x1="734.646" y1="550" x2="734.646" y2="558" stroke="rgb(0,0,0)" />
<line x1="747.441" y1="550" x2="747.441" y2="554" stroke="rgb(0,0,0)" />
<text x="409" y="594" fill="rgb(0,0,0)">
N</text>
<line x1="100" y1="50" x2="100" y2="550" stroke="rgb(0,0,0)" />
<text x="58" y="558" fill="rgb(0,0,0)">
0</text>
<line x1="100" y1="550" x2="92" y2="550" stroke="rgb(0,0,0)" />
<line x1="100" y1="544.604" x2="96" y2="544.604" stroke="rgb(0,0,0)" />
<line x1="100" y1="539.209" x2="96" y2="539.209" stroke="rgb(0,0,0)" />
<line x1="100" y1="533.814" x2="96" y2="533.814" stroke="rgb(0,0,0)" />
<line x1="100" y1="528.418" x2="96" y2="528.418" stroke="rgb(0,0,0)" />
<text x="46" y="531" fill="rgb(0,0,0)">
500</text>
<line x1="100" y1="523.023" x2="92" y2="523.023" stroke="rgb(0,0,0)" />
<line x1="100" y1="517.627" x2="96" y2="517.627" stroke="rgb(0,0,0)" />
<line x1="100" y1="512.232" x2="96" y2="512.232" stroke="rgb(0,0,0)" />
<line x1="100" y1="506.836" x2="96" y2="506.836" stroke="rgb(0,0,0)" />
<line x1="100" y1="501.441" x2="96" y2="501.441" stroke="rgb(0,0,0)" />
<text x="42" y="504" fill="rgb(0,0,0)">
1000</text>
<line x1="100" y1="496.045" x2="92" y2="496.045" stroke="rgb(0,0,0)" />
<line x1="100" y1="490.65" x2="96" y2="490.65" stroke="rgb(0,0,0)" />
<line x1="100" y1="485.254" x2="96" y2="485.254" stroke="rgb(0,0,0)" />
<line x1="100" y1="479.859" x2="96" y2="479.859" stroke="rgb(0,0,0)" />
<line x1="100" y1="474.463" x2="96" y2="474.463" stroke="rgb(0,0,0)" />
<text x="42" y="477" fill="rgb(0,0,0)">
1500</text>
<line x1="100" y1="469.068" x2="92" y2="469.068" stroke="rgb(0,0,0)" />
<line x1="100" y1="463.672" x2="96" y2="463.672" stroke="rgb(0,0,0)" />
<line x1="100" y1="458.277" x2="96" y2="458.277" stroke="rgb(0,0,0)" />
<line x1="100" y1="452.881" x2="96" y2="452.881" stroke="rgb(0,0,0)" />
<line x1="100" y1="447.486" x2="96" y2="447.486" stroke="rgb(0,0,0)" />
<text x="40" y="450" fill="rgb(0,0,0)">
2000</text>
<line x1="100" y1="442.09" x2="92" y2="442.09" stroke="rgb(0,0,0)" />
<line x1="100" y1="436.695" x2="96" y2="436.695" stroke="rgb(0,0,0)" />
<line x1="100" y1="431.299" x2="96" y2="431.299" stroke="rgb(0,0,0)" />
<line x1="100" y1="425.904" x2="96" y2="425.904" stroke="rgb(0,0,0)" />
<line x1="100" y1="420.508" x2="96" y2="420.508" stroke="rgb(0,0,0)" />
<text x="40" y="423" fill="rgb(0,0,0)">
2500</text>
<line x1="100" y1="415.113" x2="92" y2="415.113" stroke="rgb(0,0,0)" />
<line x1="100" y1="409.717" x2="96" y2="409.717" stroke="rgb(0,0,0)" />
<line x1="100" y1="404.322" x2="96" y2="404.322" stroke="rgb(0,0,0)" />
<line x1="100" y1="398.926" x2="96" y2="398.926" stroke="rgb(0,0,0)" />
<line x1="100" y1="393.531" x2="96" y2="393.531" stroke="rgb(0,0,0)" />
<text x="40" y="396" fill="rgb(0,0,0)">
3000</text>
<line x1="100" y1="388.135" x2="92" y2="388.135" stroke="rgb(0,0,0)" />
<line x1="100" y1="382.74" x2="96" y2="382.74" stroke="rgb(0,0,0)" />
<line x1="100" y1="377.344" x2="96" y2="377.344" stroke="rgb(0,0,0)" />
<line x1="100" y1="371.949" x2="96" y2="371.949" stroke="rgb(0,0,0)" />
<line x1="100" y1="366.553" x2="96" y2="366.553" stroke="rgb(0,0,0)" />
<text x="40" y="369" fill="rgb(0,0,0)">
3500</text>
<line x1="100" y1="361.158" x2="92" y2="361.158" stroke="rgb(0,0,0)" />
<line x1="100" y1="355.762" x2="96" y2="355.762" stroke="rgb(0,0,0)" />
<line x1="100" y1="350.367" x2="96" y2="350.367" stroke="rgb(0,0,0)" />
<line x1="100" y1="344.971" x2="96" y2="344.971" stroke="rgb(0,0,0)" />
<line x1="100" y1="339.576" x2="96" y2="339.576" stroke="rgb(0,0,0)" />
<text x="40" y="342" fill="rgb(0,0,0)">
4000</text>
<line x1="100" y1="334.18" x2="92" y2="334.18" stroke="rgb(0,0,0)" />
<line x1="100" y1="328.785" x2="96" y2="328.785" stroke="rgb(0,0,0)" />
<line x1="100" y1="323.389" x2="96" y2="323.389" stroke="rgb(0,0,0)" />
<line x1="100" y1="317.994" x2="96" y2="317.994" stroke="rgb(0,0,0)" />
<line x1="100" y1="312.598" x2="96" y2="312.598" stroke="rgb(0,0,0)" />
<text x="40" y="315" fill="rgb(0,0,0)">
4500</text>
<line x1="100" y1="307.203" x2="92" y2="307.203" stroke="rgb(0,0,0)" />
<line x1="100" y1="301.807" x2="96" y2="301.807" stroke="rgb(0,0,0)" />
<line x1="100" y1="296.412" x2="96" y2="296.412" stroke="rgb(0,0,0)" />
<line x1="100" y1="291.017" x2="96" y2="291.017" stroke="rgb(0,0,0)" />
<line x1="100" y1="285.621" x2="96" y2="285.621" stroke="rgb(0,0,0)" />
<text x="40" y="288" fill="rgb(0,0,0)">
5000</text>
<line x1="100" y1="280.226" x2="92" y2="280.226" stroke="rgb(0,0,0)" />
<line x1="100" y1="274.83" x2="96" y2="274.83" stroke="rgb(0,0,0)" />
<line x1="100" y1="269.435" x2="96" y2="269.435" stroke="rgb(0,0,0)" />
<line x1="100" y1="264.039" x2="96" y2="264.039" stroke="rgb(0,0,0)" />
<line x1="100" y1="258.644" x2="96" y2="258.644" stroke="rgb(0,0,0)" />
<text x="40" y="261" fill="rgb(0,0,0)">
5500</text>
<line x1="100" y1="253.248" x2="92" y2="253.248" stroke="rgb(0,0,0)" />
<line x1="100" y1="247.853" x2="96" y2="247.853" stroke="rgb(0,0,0)" />
<line x1="100" y1="242.457" x2="96" y2="242.457" stroke="rgb(0,0,0)" />
<line x1="100" y1="237.062" x2="96" y2="237.062" stroke="rgb(0,0,0)" />
<line x1="100" y1="231.666" x2="96" y2="231.666" stroke="rgb(0,0,0)" />
<text x="40" y="234" fill="rgb(0,0,0)">
6000</text>
<line x1="100" y1="226.271" x2="92" y2="226.271" stroke="rgb(0,0,0)" />
<line x1="100" y1="220.875" x2="96" y2="220.875" stroke="rgb(0,0,0)" />
<line x1="100" y1="215.48" x2="96" y2="215.48" stroke="rgb(0,0,0)" />
<line x1="100" y1="210.084" x2="96" y2="210.084" stroke="rgb(0,0,0)" />
<line x1="100" y1="204.689" x2="96" y2="204.689" stroke="rgb(0,0,0)" />
<text x="40" y="207" fill="rgb(0,0,0)">
6500</text>
<line x1="100" y1="199.293" x2="92" y2="199.293" stroke="rgb(0,0,0)" />
<line x1="100" y1="193.898" x2="96" y2="193.898" stroke="rgb(0,0,0)" />
<line x1="100" y1="188.502" x2="96" y2="188.502" stroke="rgb(0,0,0)" />
<line x1="100" y1="183.107" x2="96" y2="183.107" stroke="rgb(0,0,0)" />
<line x1="100" y1="177.711" x2="96" y2="177.711" stroke="rgb(0,0,0)" />
<text x="40" y="180" fill="rgb(0,0,0)">
7000</text>
<line x1="100" y1="172.316" x2="92" y2="172.316" stroke="rgb(0,0,0)" />
<line x1="100" y1="166.92" x2="96" y2="166.92" stroke="rgb(0,0,0)" />
<line x1="100" y1="161.525" x2="96" y2="161.525" stroke="rgb(0,0,0)" />
<line x1="100" y1="156.129" x2="96" y2="156.129" stroke="rgb(0,0,0)" />
<line x1="100" y1="150.734" x2="96" y2="150.734" stroke="rgb(0,0,0)" />
<text x="40" y="153" fill="rgb(0,0,0)">
7500</text>
<line x1="100" y1="145.338" x2="92" y2="145.338" stroke="rgb(0,0,0)" />
<line x1="100" y1="139.943" x2="96" y2="139.943" stroke="rgb(0,0,0)" />
<line x1="100" y1="134.547" x2="96" y2="134.547" stroke="rgb(0,0,0)" />
<line x1="100" y1="129.152" x2="96" y2="129.152" stroke="rgb(0,0,0)" />
<line x1="100" y1="123.756" x2="96" y2="123.756" stroke="rgb(0,0,0)" />
<text x="40" y="126" fill="rgb(0,0,0)">
8000</text>
<line x1="100" y1="118.361" x2="92" y2="118.361" stroke="rgb(0,0,0)" />
<line x1="100" y1="112.965" x2="96" y2="112.965" stroke="rgb(0,0,0)" />
<line x1="100" y1="107.57" x2="96" y2="107.57" stroke="rgb(0,0,0)" />
<line x1="100" y1="102.174" x2="96" y2="102.174" stroke="rgb(0,0,0)" />
<line x1="100" y1="96.7789" x2="96" y2="96.7789" stroke="rgb(0,0,0)" />
<text x="40" y="99" fill="rgb(0,0,0)">
8500</text>
<line x1="100" y1="91.3834" x2="92" y2="91.3834" stroke="rgb(0,0,0)" />
<line x1="100" y1="85.9879" x2="96" y2="85.9879" stroke="rgb(0,0,0)" />
<line x1="100" y1="80.5924" x2="96" y2="80.5924" stroke="rgb(0,0,0)" />
<line x1="100" y1="75.197" x2="96" y2="75.197" stroke="rgb(0,0,0)" />
<line x1="100" y1="69.8015" x2="96" y2="69.8015" stroke="rgb(0,0,0)" />
<text x="40" y="72" fill="rgb(0,0,0)">
9000</text>
<line x1="100" y1="64.406" x2="92" y2="64.406" stroke="rgb(0,0,0)" />
<line x1="100" y1="59.0105" x2="96" y2="59.0105" stroke="rgb(0,0,0)" />
<line x1="100" y1="53.615" x2="96" y2="53.615" stroke="rgb(0,0,0)" />
<text x="40" y="370" transform="rotate(-90,40,370)">Time (microseconds)</text>
<text x="120" y="66" fill="rgb(200,0,100)">
bubbleSort</text>
<text x="120" y="98" fill="rgb(100,20,220)">
selectionSort</text>
<text x="120" y="130" fill="rgb(50,220,10)">
insertionSort</text>
<text x="120" y="162" fill="rgb(200,209,220)">
std::sort</text>
<clipPath>
<rect x="100" y="50" width="650" height="500" fill="rgb(0,0,0)" />
</clipPath>
<line x1="100" y1="549.946" x2="105.118" y2="549.784" stroke="rgb(200,0,100)" />
<line x1="105.118" y1="549.784" x2="115.354" y2="549.46" stroke="rgb(200,0,100)" />
<line x1="115.354" y1="549.46" x2="135.827" y2="547.896" stroke="rgb(200,0,100)" />
<line x1="135.827" y1="547.896" x2="176.772" y2="542.338" stroke="rgb(200,0,100)" />
<line x1="176.772" y1="542.338" x2="258.661" y2="513.041" stroke="rgb(200,0,100)" />
<line x1="258.661" y1="513.041" x2="422.441" y2="412.577" stroke="rgb(200,0,100)" />
<line x1="422.441" y1="412.577" x2="750" y2="50" stroke="rgb(200,0,100)" />
<line x1="100" y1="549.946" x2="105.118" y2="549.892" stroke="rgb(100,20,220)" />
<line x1="105.118" y1="549.892" x2="115.354" y2="549.73" stroke="rgb(100,20,220)" />
<line x1="115.354" y1="549.73" x2="135.827" y2="549.245" stroke="rgb(100,20,220)" />
<line x1="135.827" y1="549.245" x2="176.772" y2="547.896" stroke="rgb(100,20,220)" />
<line x1="176.772" y1="547.896" x2="258.661" y2="542.824" stroke="rgb(100,20,220)" />
<line x1="258.661" y1="542.824" x2="422.441" y2="523.13" stroke="rgb(100,20,220)" />
<line x1="422.441" y1="523.13" x2="750" y2="459.032" stroke="rgb(100,20,220)" />
<line x1="100" y1="550" x2="105.118" y2="549.946" stroke="rgb(50,220,10)" />
<line x1="105.118" y1="549.946" x2="115.354" y2="549.892" stroke="rgb(50,220,10)" />
<line x1="115.354" y1="549.892" x2="135.827" y2="549.676" stroke="rgb(50,220,10)" />
<line x1="135.827" y1="549.676" x2="176.772" y2="548.975" stroke="rgb(50,220,10)" />
<line x1="176.772" y1="548.975" x2="258.661" y2="545.09" stroke="rgb(50,220,10)" />
<line x1="258.661" y1="545.09" x2="422.441" y2="535.108" stroke="rgb(50,220,10)" />
<line x1="422.441" y1="535.108" x2="750" y2="489.678" stroke="rgb(50,220,10)" />
<line x1="100" y1="549.838" x2="105.118" y2="549.784" stroke="rgb(200,209,220)" />
<line x1="105.118" y1="549.784" x2="115.354" y2="549.568" stroke="rgb(200,209,220)" />
<line x1="115.354" y1="549.568" x2="135.827" y2="549.245" stroke="rgb(200,209,220)" />
<line x1="135.827" y1="549.245" x2="176.772" y2="548.219" stroke="rgb(200,209,220)" />
<line x1="176.772" y1="548.219" x2="258.661" y2="546.223" stroke="rgb(200,209,220)" />
<line x1="258.661" y1="546.223" x2="422.441" y2="541.259" stroke="rgb(200,209,220)" />
<line x1="422.441" y1="541.259" x2="750" y2="529.389" stroke="rgb(200,209,220)" />
</svg>

